<?xml version="1.0" encoding="utf-8"?>
<!-- Generator: Adobe Illustrator 14.0.0, SVG Export Plug-In . SVG Version: 6.00 Build 43363)  -->
<!DOCTYPE svg PUBLIC "-//W3C//DTD SVG 1.1//EN" "http://www.w3.org/Graphics/SVG/1.1/DTD/svg11.dtd">
<svg version="1.1" id="svg2" xmlns:svg="http://www.w3.org/2000/svg"
	 xmlns="http://www.w3.org/2000/svg" xmlns:xlink="http://www.w3.org/1999/xlink" x="0px" y="0px" width="1450px" height="1450px"
	 viewBox="0 0 1450 1450" enable-background="new 0 0 1450 1450" xml:space="preserve">
<g id="layer1">
	<path id="path1881" d="M129.305,1330.97c-3.399-3.399-3.399-1191.863,0-1195.263c3.4-3.4,1186.029-3.4,1189.429,0
		c3.399,3.4,3.399,1191.863,0,1195.263C1315.334,1334.37,132.705,1334.37,129.305,1330.97z M424.063,1255.919
		c0.336-43.765-0.188-67.999-1.526-70.499c-1.966-3.672-4.51-3.81-70.622-3.81c-50.749,0-69.189,0.607-70.916,2.334
		c-1.726,1.726-2.334,19.895-2.334,69.688c0,37.045,0.594,67.948,1.32,68.674c0.726,0.727,33.326,1.091,72.443,0.811l71.123-0.51
		L424.063,1255.919z M721.103,1252.596v-70.013h-72.93h-72.929l-0.511,70.521l-0.511,70.522l73.44-0.51l73.439-0.51V1252.596z
		 M1021.11,1255.919c0.336-43.765-0.188-67.999-1.526-70.499c-1.967-3.675-4.522-3.81-72.566-3.81
		c-52.262,0-71.131,0.604-72.86,2.334c-1.726,1.726-2.334,19.895-2.334,69.688c0,37.045,0.594,67.947,1.319,68.674
		c0.726,0.726,34.2,1.09,74.388,0.811l73.068-0.51L1021.11,1255.919z M1312.828,1254.77c0.368-48.805-0.114-68.59-1.718-70.522
		c-1.833-2.209-14.344-2.595-70.523-2.175l-68.295,0.511l-0.511,70.522l-0.51,70.523l70.522-0.511l70.522-0.511L1312.828,1254.77z
		 M273.644,1178.485c2.729-1.047,3.076-9.384,3.076-73.901v-72.722h-69.804c-61.858,0-69.938,0.351-70.985,3.076
		c-0.649,1.692-1.18,33.897-1.18,71.568c0,50.679,0.607,69.099,2.333,70.825c1.723,1.723,19.499,2.334,67.908,2.334
		C241.059,1179.666,271.952,1179.135,273.644,1178.485z M571.01,1177.235c3.037-2.227,3.273-8.409,2.803-73.416l-0.514-70.984
		l-71.827-0.511c-56.17-0.399-72.167,0.025-73.386,1.945c-0.857,1.35-1.571,33.241-1.588,70.869
		c-0.026,59.629,0.362,68.808,3.026,71.471c2.661,2.661,11.79,3.057,70.612,3.057
		C551.117,1179.666,568.508,1179.069,571.01,1177.235z M866.802,1178.485c2.729-1.047,3.076-9.386,3.076-73.925v-72.745
		l-72.442,0.51l-72.443,0.51l-0.511,71.827c-0.399,56.17,0.024,72.167,1.945,73.386
		C729.26,1179.847,862.175,1180.261,866.802,1178.485z M1166.113,1177.235c3.037-2.227,3.273-8.409,2.803-73.416l-0.514-70.984
		l-72.8-0.511c-56.948-0.398-73.139,0.025-74.358,1.945c-0.856,1.351-1.571,33.241-1.588,70.869
		c-0.025,59.629,0.362,68.808,3.026,71.471c2.663,2.663,11.879,3.057,71.585,3.057
		C1146.025,1179.666,1163.608,1179.071,1166.113,1177.235z M423.343,1026.842c0.649-1.692,1.181-33.573,1.181-70.846
		c0-59.016-0.395-68.164-3.057-70.826c-2.658-2.658-11.659-3.056-69.167-3.056c-41.854,0-67.492,0.738-69.874,2.014
		c-3.613,1.933-3.762,4.803-3.762,72.604c0,38.826,0.583,71.176,1.296,71.889c0.713,0.713,33,1.297,71.749,1.297
		C414.159,1029.918,422.297,1029.568,423.343,1026.842z M721.613,957.118c0.399-56.17-0.025-72.167-1.945-73.386
		c-2.833-1.799-137.692-2.214-142.32-0.438c-2.729,1.047-3.076,9.386-3.076,73.925v72.745l73.416-0.51l73.415-0.51L721.613,957.118z
		 M1020.391,1026.842c0.649-1.692,1.181-33.573,1.181-70.846c0-59.016-0.395-68.164-3.056-70.826
		c-2.662-2.661-11.836-3.056-71.112-3.056c-43.194,0-69.431,0.735-71.818,2.014c-3.613,1.933-3.762,4.803-3.762,72.604
		c0,38.826,0.583,71.176,1.297,71.889c0.713,0.713,33.875,1.297,73.693,1.297C1011.036,1029.918,1019.344,1029.57,1020.391,1026.842
		z M1312.108,1026.842c0.649-1.692,1.18-33.897,1.18-71.568c0-50.678-0.606-69.099-2.333-70.825
		c-1.723-1.724-19.499-2.334-67.908-2.334c-36.066,0-66.959,0.531-68.651,1.181c-2.729,1.047-3.076,9.383-3.076,73.901v72.722
		h69.805C1302.981,1029.918,1311.063,1029.567,1312.108,1026.842z M275.748,806.268v-72.929l-67.837-0.512
		c-48.447-0.366-68.598,0.119-70.499,1.696c-3.667,3.043-3.956,139.684-0.303,143.337c1.778,1.777,19.125,2.232,70.499,1.848
		l68.14-0.511V806.268z M572.113,877.51c1.578-1.902,2.062-22.811,1.696-73.416l-0.511-70.755l-70.984-0.515
		c-65.007-0.47-71.189-0.234-73.415,2.803c-3.138,4.28-3.525,134.975-0.418,140.781c1.933,3.611,4.793,3.762,71.719,3.762
		C556.79,880.17,570.321,879.669,572.113,877.51z M868.906,806.268v-72.929h-71.957h-71.957l-0.511,70.976
		c-0.281,39.037-0.086,72.085,0.435,73.439c0.744,1.939,16.164,2.355,72.468,1.953l71.522-0.51V806.268z M1167.041,877.836
		c3.346-3.346,3.346-139.79,0-143.136c-1.73-1.73-20.78-2.334-73.675-2.334h-71.341l-1.173,4.376
		c-2.098,7.827-1.377,135.621,0.787,139.666c1.934,3.612,4.803,3.762,72.54,3.762
		C1146.441,880.17,1165.312,879.564,1167.041,877.836z M421.467,729.31c2.664-2.663,3.053-11.842,3.026-71.471
		c-0.016-37.628-0.73-69.52-1.588-70.87c-1.219-1.92-17.022-2.344-72.414-1.944l-70.854,0.511l-0.514,70.984
		c-0.47,65.007-0.234,71.189,2.803,73.416c2.5,1.832,19.699,2.431,69.901,2.431C409.765,732.366,418.808,731.969,421.467,729.31z
		 M719.668,730.748c1.92-1.219,2.345-17.216,1.945-73.386l-0.511-71.827h-72.93h-72.929l-0.511,71.827
		c-0.399,56.17,0.024,72.167,1.944,73.386C579.885,732.783,716.462,732.783,719.668,730.748z M1018.516,729.31
		c2.663-2.663,3.052-11.842,3.026-71.471c-0.017-37.628-0.731-69.519-1.589-70.869c-1.219-1.921-17.41-2.344-74.357-1.945
		l-72.8,0.511l-0.515,70.984c-0.47,65.007-0.234,71.189,2.803,73.416c2.505,1.836,20.088,2.431,71.846,2.431
		C1006.637,732.366,1015.853,731.973,1018.516,729.31z M1310.955,730.032c2.706-2.706,3.387-138.854,0.715-143.063
		c-1.219-1.919-16.633-2.345-70.469-1.945l-68.909,0.512l-0.511,71.827c-0.399,56.17,0.024,72.167,1.945,73.386
		C1177.932,733.417,1308.249,732.738,1310.955,730.032z M276.258,509.202l-0.51-71.471l-68.91-0.512
		c-53.835-0.399-69.25,0.026-70.468,1.945c-1.799,2.834-2.214,133.805-0.438,138.432c1.046,2.727,9.128,3.076,71.009,3.076h69.828
		L276.258,509.202z M573.299,508.716v-70.984l-71.827-0.511c-56.17-0.398-72.167,0.025-73.386,1.945
		c-1.805,2.843-2.21,133.812-0.429,138.454c1.064,2.772,8.819,3.046,73.416,2.59l72.226-0.509V508.716z M869.416,509.202
		l-0.51-71.471h-71.957h-71.957l-0.512,69.029c-0.281,37.967-0.09,70.129,0.425,71.471c0.729,1.898,16.979,2.441,72.979,2.441
		h72.041L869.416,509.202z M1168.402,508.716v-70.984l-72.8-0.51c-56.948-0.399-73.139,0.024-74.358,1.944
		c-1.804,2.843-2.21,133.812-0.428,138.454c1.063,2.772,8.904,3.046,74.388,2.59l73.198-0.509V508.716z M422.189,430.536
		c1.726-1.726,2.334-19.936,2.334-69.874c0-58.807-0.396-67.935-3.057-70.596c-2.658-2.658-11.659-3.056-69.167-3.056
		c-41.854,0-67.492,0.739-69.874,2.014c-3.611,1.933-3.762,4.792-3.762,71.633c0,38.291,0.583,70.203,1.296,70.916
		c0.713,0.713,32.481,1.296,70.596,1.296C401.863,432.869,420.462,432.264,422.189,430.536z M721.613,361.042
		c0.399-55.392-0.025-71.194-1.944-72.413c-2.834-1.799-137.693-2.214-142.321-0.438c-2.727,1.046-3.076,9.184-3.076,71.633
		c0,38.749,0.594,71.046,1.32,71.772c0.726,0.726,33.763,1.091,73.415,0.811l72.096-0.51L721.613,361.042z M1020.391,429.793
		c0.649-1.691,1.181-33.135,1.181-69.873c0-58.131-0.396-67.193-3.056-69.853c-2.662-2.662-11.836-3.056-71.112-3.056
		c-43.194,0-69.431,0.736-71.818,2.014c-3.611,1.933-3.762,4.792-3.762,71.633c0,38.291,0.583,70.203,1.297,70.916
		c0.713,0.713,33.875,1.296,73.693,1.296C1011.036,432.869,1019.344,432.522,1020.391,429.793z M1312.108,429.793
		c0.649-1.691,1.18-33.459,1.18-70.595c0-49.922-0.607-68.127-2.333-69.853c-1.723-1.723-19.499-2.334-67.908-2.334
		c-36.066,0-66.959,0.531-68.651,1.181c-2.727,1.046-3.076,9.184-3.076,71.633c0,38.749,0.584,71.036,1.297,71.749
		s32.125,1.296,69.804,1.296C1303.096,432.869,1311.063,432.518,1312.108,429.793z M276.258,213.571l0.511-70.523l-70.523,0.511
		l-70.522,0.51l-0.512,67.837c-0.368,48.806,0.114,68.591,1.717,70.523c1.833,2.209,14.344,2.595,70.524,2.175l68.295-0.511
		L276.258,213.571z M572.114,282.405c1.577-1.9,2.062-22.051,1.696-70.499l-0.512-67.837H500.37h-72.93l-0.512,66.689
		c-0.336,43.764,0.189,67.999,1.527,70.499c1.966,3.674,4.517,3.81,71.744,3.81C556.805,285.066,570.32,284.566,572.114,282.405z
		 M869.416,213.572l0.511-70.522l-72.467,0.51l-72.468,0.51l-0.512,68.057c-0.282,37.431-0.086,69.166,0.434,70.522
		c0.746,1.942,16.128,2.357,72.47,1.956l71.522-0.51L869.416,213.572z M1167.217,282.405c1.578-1.9,2.063-22.051,1.697-70.499
		l-0.512-67.837H1094.5h-73.901l-0.512,66.689c-0.336,43.764,0.189,67.999,1.527,70.499c1.967,3.675,4.523,3.81,72.717,3.81
		C1151.759,285.066,1165.423,284.567,1167.217,282.405z"/>
	<text transform="matrix(1 0 0 1 321.5444 1424.8848)" font-family="'Verdana'" font-size="100">g</text>
	<g id="g2570" transform="translate(31.428571,-210.2857)">
		<text transform="matrix(1 0 0 1 146.3512 1635.8247)" font-family="'Verdana'" font-size="100">h</text>
		<text transform="matrix(1 0 0 1 444.4518 1635.8247)" font-family="'Verdana'" font-size="100">f</text>
		<text transform="matrix(1 0 0 1 590.9747 1634.5552)" font-family="'Verdana'" font-size="100">e</text>
		<text transform="matrix(1 0 0 1 738.8654 1634.311)" font-family="'Verdana'" font-size="100">d</text>
		<text transform="matrix(1 0 0 1 896.4972 1634.604)" font-family="'Verdana'" font-size="100">c</text>
		<text transform="matrix(1 0 0 1 1036.6241 1634.311)" font-family="'Verdana'" font-size="100">b</text>
		<text transform="matrix(1 0 0 1 1182.6105 1634.311)" font-family="'Verdana'" font-size="100">a</text>
	</g>
	<g id="g2484" transform="translate(8.5714283,-209.71428)">
		<text transform="matrix(1 0 0 1 21.6917 456.9252)" font-family="'Verdana'" font-size="100">1</text>
		<text transform="matrix(1 0 0 1 21.0814 607.0834)" font-family="'Verdana'" font-size="100">2</text>
		<text transform="matrix(1 0 0 1 21.057 757.1683)" font-family="'Verdana'" font-size="100">3</text>
		<text transform="matrix(1 0 0 1 20.6664 906.6429)" font-family="'Verdana'" font-size="100">4</text>
		<text transform="matrix(1 0 0 1 22.2289 1057.557)" font-family="'Verdana'" font-size="100">5</text>
		<text transform="matrix(1 0 0 1 21.3744 1207.7152)" font-family="'Verdana'" font-size="100">6</text>
		<text transform="matrix(1 0 0 1 21.0081 1358.6302)" font-family="'Verdana'" font-size="100">7</text>
		<text transform="matrix(1 0 0 1 20.2269 1508.1537)" font-family="'Verdana'" font-size="100">8</text>
	</g>
	<g id="g2604" transform="translate(16.723198,-1541.0796)">
		<text transform="matrix(1 0 0 1 146.3515 1635.8247)" font-family="'Verdana'" font-size="100">h</text>
		<text transform="matrix(1 0 0 1 444.4516 1635.8247)" font-family="'Verdana'" font-size="100">f</text>
		<text transform="matrix(1 0 0 1 590.975 1634.5552)" font-family="'Verdana'" font-size="100">e</text>
		<text transform="matrix(1 0 0 1 738.8657 1634.311)" font-family="'Verdana'" font-size="100">d</text>
		<text transform="matrix(1 0 0 1 896.4975 1634.604)" font-family="'Verdana'" font-size="100">c</text>
		<text transform="matrix(1 0 0 1 1036.6245 1634.311)" font-family="'Verdana'" font-size="100">b</text>
		<text transform="matrix(1 0 0 1 1182.6099 1634.311)" font-family="'Verdana'" font-size="100">a</text>
	</g>
	<text transform="matrix(1 0 0 1 322.1563 90.8428)" font-family="'Verdana'" font-size="100">g</text>
	<g id="g2638" transform="translate(1336.5938,-210.89491)">
		<text transform="matrix(1 0 0 1 21.6914 456.9252)" font-family="'Verdana'" font-size="100">1</text>
		<text transform="matrix(1 0 0 1 21.082 607.0834)" font-family="'Verdana'" font-size="100">2</text>
		<text transform="matrix(1 0 0 1 21.0566 757.1683)" font-family="'Verdana'" font-size="100">3</text>
		<text transform="matrix(1 0 0 1 20.666 906.6429)" font-family="'Verdana'" font-size="100">4</text>
		<text transform="matrix(1 0 0 1 22.2285 1057.557)" font-family="'Verdana'" font-size="100">5</text>
		<text transform="matrix(1 0 0 1 21.375 1207.7152)" font-family="'Verdana'" font-size="100">6</text>
		<text transform="matrix(1 0 0 1 21.0078 1358.6302)" font-family="'Verdana'" font-size="100">7</text>
		<text transform="matrix(1 0 0 1 20.2266 1508.1537)" font-family="'Verdana'" font-size="100">8</text>
	</g>
</g>
<path id="path3194" stroke="#FFFFFF" stroke-width="5" stroke-linecap="round" d="M198.628,1056.848
	c-6.772,0-12.269,5.498-12.269,12.271c0,2.715,0.901,5.253,2.396,7.286c-5.987,3.441-10.064,9.857-10.064,17.255
	c0,6.239,2.889,11.776,7.38,15.434c-9.199,3.245-22.717,17.015-22.717,41.315h70.546c0-24.301-13.518-38.07-22.717-41.315
	c4.491-3.657,7.381-9.194,7.381-15.434c0-7.397-4.077-13.813-10.064-17.255c1.495-2.033,2.396-4.571,2.396-7.286
	C210.897,1062.346,205.401,1056.848,198.628,1056.848z"/>
<path id="path2575" fill="#FFFFFF" stroke="#000000" stroke-width="5" stroke-linecap="round" d="M1249.261,309.233
	c-6.772,0-12.269,5.497-12.269,12.27c0,2.715,0.901,5.252,2.396,7.286c-5.987,3.441-10.064,9.857-10.064,17.255
	c0,6.239,2.89,11.776,7.381,15.434c-9.199,3.245-22.717,17.015-22.717,41.316h70.546c0-24.301-13.518-38.071-22.717-41.316
	c4.491-3.657,7.381-9.194,7.381-15.434c0-7.397-4.077-13.813-10.064-17.255c1.494-2.033,2.396-4.57,2.396-7.286
	C1261.53,314.73,1256.033,309.233,1249.261,309.233z"/>
<g id="g3010" transform="matrix(3.067229,0,0,3.067558,-370.73572,-2915.137)">
	<path id="path2996" fill="#FFFFFF" stroke="#000000" stroke-width="1.63" stroke-linejoin="round" d="M270.786,1032.414
		c3.385-0.972,10.115,0.431,13.5-2c3.385,2.431,10.115,1.028,13.5,2c0,0,1.646,0.542,3,2c-0.677,0.972-1.646,0.986-3,0.5
		c-3.385-0.972-10.115,0.458-13.5-1c-3.385,1.458-10.115,0.028-13.5,1c-1.354,0.486-2.323,0.472-3-0.5
		C269.14,1032.47,270.786,1032.414,270.786,1032.414z"/>
	<path id="path2998" fill="#FFFFFF" stroke="#000000" stroke-width="1.63" stroke-linejoin="round" d="M276.786,1028.414
		c2.5,2.5,12.5,2.5,15,0c0.5-1.5,0-2,0-2c0-2.5-2.5-4-2.5-4c5.5-1.5,6-11.5-5-15.5c-11,4-10.5,14-5,15.5c0,0-2.5,1.5-2.5,4
		C276.786,1026.414,276.286,1026.914,276.786,1028.414z"/>
	<path id="path3000" fill="#FFFFFF" stroke="#000000" stroke-width="1.63" stroke-linejoin="round" d="M286.786,1004.414
		c0,1.381-1.119,2.5-2.5,2.5c-1.381,0-2.5-1.119-2.5-2.5c0-1.381,1.119-2.5,2.5-2.5
		C285.666,1001.914,286.786,1003.034,286.786,1004.414z"/>
	<path id="path3002" fill="none" stroke="#000000" stroke-width="1.63" d="M279.286,1022.414h10"/>
	<path id="path3004" fill="none" stroke="#000000" stroke-width="1.63" d="M276.786,1026.414h15"/>
	<path id="path3006" fill="none" stroke="#000000" stroke-width="1.63" stroke-linecap="round" d="M284.286,1011.914v5"/>
	<path id="path3008" fill="none" stroke="#000000" stroke-width="1.63" stroke-linecap="round" d="M281.786,1014.414h5"/>
</g>
<g id="g3218" transform="matrix(3.067229,0,0,3.067558,-703.29914,-3208.0451)">
	<path id="path3119" fill="#FFFFFF" stroke="#000000" stroke-width="1.63" stroke-linejoin="round" d="M280.786,1130.714h27v-3h-27
		V1130.714z"/>
	<path id="path3121" fill="#FFFFFF" stroke="#000000" stroke-width="1.63" stroke-linejoin="round" d="M283.786,1127.714v-4h21v4
		H283.786z"/>
	<path id="path3129" fill="#FFFFFF" stroke="#000000" stroke-width="1.63" stroke-linejoin="round" d="M282.786,1105.714v-5h4v2h5
		v-2h5v2h5v-2h4v5"/>
	<path id="path3127" fill="#FFFFFF" stroke="#000000" stroke-width="1.63" stroke-linecap="round" stroke-linejoin="round" d="
		M305.786,1105.714l-3,3h-17l-3-3"/>
	<path id="path3125" fill="#FFFFFF" stroke="#000000" stroke-width="1.63" d="M302.786,1108.714v12.5h-17v-12.5"/>
	<path id="path3123" fill="#FFFFFF" stroke="#000000" stroke-width="1.63" stroke-linecap="round" stroke-linejoin="round" d="
		M302.786,1121.214l1.5,2.5h-20l1.5-2.5"/>
	<path id="path5175" fill="none" stroke="#000000" stroke-width="1.63" stroke-linecap="round" d="M282.786,1105.714h23"/>
</g>
<g id="g3388" transform="matrix(3.067229,0,0,3.067558,82.100931,-2915.137)">
	<path id="path3390" fill="#FFFFFF" stroke="#000000" stroke-width="1.63" stroke-linejoin="round" d="M270.786,1032.414
		c3.385-0.972,10.114,0.431,13.5-2c3.385,2.431,10.115,1.028,13.5,2c0,0,1.646,0.542,3,2c-0.677,0.972-1.646,0.986-3,0.5
		c-3.385-0.972-10.115,0.458-13.5-1c-3.385,1.458-10.115,0.028-13.5,1c-1.354,0.486-2.323,0.472-3-0.5
		C269.14,1032.47,270.786,1032.414,270.786,1032.414z"/>
	<path id="path3392" fill="#FFFFFF" stroke="#000000" stroke-width="1.63" stroke-linejoin="round" d="M276.786,1028.414
		c2.5,2.5,12.5,2.5,15,0c0.5-1.5,0-2,0-2c0-2.5-2.5-4-2.5-4c5.5-1.5,6-11.5-5-15.5c-11,4-10.5,14-5,15.5c0,0-2.5,1.5-2.5,4
		C276.786,1026.414,276.286,1026.914,276.786,1028.414z"/>
	<path id="path3394" fill="#FFFFFF" stroke="#000000" stroke-width="1.63" stroke-linejoin="round" d="M286.786,1004.414
		c0,1.381-1.119,2.5-2.5,2.5c-1.381,0-2.5-1.119-2.5-2.5c0-1.381,1.119-2.5,2.5-2.5
		C285.667,1001.914,286.786,1003.034,286.786,1004.414z"/>
	<path id="path3396" fill="none" stroke="#000000" stroke-width="1.63" d="M279.286,1022.414h10"/>
	<path id="path3398" fill="none" stroke="#000000" stroke-width="1.63" d="M276.786,1026.414h15"/>
	<path id="path3400" fill="none" stroke="#000000" stroke-width="1.63" stroke-linecap="round" d="M284.286,1011.914v5"/>
	<path id="path3402" fill="none" stroke="#000000" stroke-width="1.63" stroke-linecap="round" d="M281.786,1014.414h5"/>
</g>
<g id="g3416" transform="matrix(3.067229,0,0,3.067558,353.3198,-3208.0451)">
	<path id="path3418" fill="#FFFFFF" stroke="#000000" stroke-width="1.63" stroke-linejoin="round" d="M280.786,1130.714h27v-3h-27
		V1130.714z"/>
	<path id="path3420" fill="#FFFFFF" stroke="#000000" stroke-width="1.63" stroke-linejoin="round" d="M283.786,1127.714v-4h21v4
		H283.786z"/>
	<path id="path3422" fill="#FFFFFF" stroke="#000000" stroke-width="1.63" stroke-linejoin="round" d="M282.786,1105.714v-5h4v2h5
		v-2h5v2h5v-2h4v5"/>
	<path id="path3424" fill="#FFFFFF" stroke="#000000" stroke-width="1.63" stroke-linecap="round" stroke-linejoin="round" d="
		M305.786,1105.714l-3,3h-17l-3-3"/>
	<path id="path3426" fill="#FFFFFF" stroke="#000000" stroke-width="1.63" d="M302.786,1108.714v12.5h-17v-12.5"/>
	<path id="path3428" fill="#FFFFFF" stroke="#000000" stroke-width="1.63" stroke-linecap="round" stroke-linejoin="round" d="
		M302.786,1121.214l1.5,2.5h-20l1.5-2.5"/>
	<path id="path3430" fill="none" stroke="#000000" stroke-width="1.63" stroke-linecap="round" d="M282.786,1105.714h23"/>
</g>
<path id="path3432" fill="#FFFFFF" stroke="#000000" stroke-width="5" stroke-linecap="round" d="M1099.224,309.234
	c-6.772,0-12.27,5.497-12.27,12.27c0,2.715,0.901,5.252,2.396,7.286c-5.987,3.441-10.064,9.857-10.064,17.255
	c0,6.239,2.89,11.776,7.381,15.434c-9.199,3.245-22.717,17.015-22.717,41.316h70.546c0-24.301-13.518-38.071-22.717-41.316
	c4.491-3.657,7.381-9.194,7.381-15.434c0-7.397-4.077-13.813-10.064-17.255c1.495-2.033,2.396-4.57,2.396-7.286
	C1111.492,314.731,1105.996,309.234,1099.224,309.234z"/>
<path id="path3434" fill="#FFFFFF" stroke="#000000" stroke-width="5" stroke-linecap="round" d="M949.185,309.234
	c-6.772,0-12.27,5.497-12.27,12.27c0,2.715,0.902,5.252,2.396,7.286c-5.987,3.441-10.064,9.857-10.064,17.255
	c0,6.239,2.89,11.776,7.381,15.434c-9.199,3.245-22.717,17.015-22.717,41.316h70.547c0-24.301-13.518-38.071-22.717-41.316
	c4.49-3.657,7.38-9.194,7.38-15.434c0-7.397-4.077-13.813-10.064-17.255c1.495-2.033,2.396-4.57,2.396-7.286
	C961.454,314.731,955.958,309.234,949.185,309.234z"/>
<path id="path3436" fill="#FFFFFF" stroke="#000000" stroke-width="5" stroke-linecap="round" d="M799.147,309.234
	c-6.772,0-12.269,5.497-12.269,12.27c0,2.715,0.901,5.252,2.396,7.286c-5.986,3.441-10.063,9.857-10.063,17.255
	c0,6.239,2.889,11.776,7.38,15.434c-9.199,3.245-22.717,17.015-22.717,41.316h70.547c0-24.301-13.518-38.071-22.717-41.316
	c4.491-3.657,7.38-9.194,7.38-15.434c0-7.397-4.077-13.813-10.063-17.255c1.494-2.033,2.396-4.57,2.396-7.286
	C811.416,314.731,805.92,309.234,799.147,309.234z"/>
<path id="path3438" fill="#FFFFFF" stroke="#000000" stroke-width="5" stroke-linecap="round" d="M649.109,309.234
	c-6.772,0-12.269,5.497-12.269,12.27c0,2.715,0.901,5.252,2.396,7.286c-5.987,3.441-10.064,9.857-10.064,17.255
	c0,6.239,2.89,11.776,7.38,15.434c-9.198,3.245-22.716,17.015-22.716,41.316h70.546c0-24.301-13.518-38.071-22.717-41.316
	c4.491-3.657,7.381-9.194,7.381-15.434c0-7.397-4.077-13.813-10.064-17.255c1.494-2.033,2.396-4.57,2.396-7.286
	C661.379,314.731,655.882,309.234,649.109,309.234z"/>
<path id="path3440" fill="#FFFFFF" stroke="#000000" stroke-width="5" stroke-linecap="round" d="M499.071,309.234
	c-6.772,0-12.269,5.497-12.269,12.27c0,2.715,0.901,5.252,2.396,7.286c-5.987,3.441-10.064,9.857-10.064,17.255
	c0,6.239,2.89,11.776,7.381,15.434c-9.199,3.245-22.717,17.015-22.717,41.316h70.546c0-24.301-13.518-38.071-22.717-41.316
	c4.491-3.657,7.381-9.194,7.381-15.434c0-7.397-4.077-13.813-10.064-17.255c1.494-2.033,2.396-4.57,2.396-7.286
	C511.341,314.731,505.844,309.234,499.071,309.234z"/>
<path id="path3442" fill="#FFFFFF" stroke="#000000" stroke-width="5" stroke-linecap="round" d="M349.034,309.234
	c-6.772,0-12.27,5.497-12.27,12.27c0,2.715,0.902,5.252,2.396,7.286c-5.987,3.441-10.064,9.857-10.064,17.255
	c0,6.239,2.89,11.776,7.381,15.434c-9.199,3.245-22.717,17.015-22.717,41.316h70.546c0-24.301-13.518-38.071-22.717-41.316
	c4.491-3.657,7.381-9.194,7.381-15.434c0-7.397-4.077-13.813-10.064-17.255c1.495-2.033,2.396-4.57,2.396-7.286
	C361.303,314.731,355.807,309.234,349.034,309.234z"/>
<path id="path3444" fill="#FFFFFF" stroke="#000000" stroke-width="5" stroke-linecap="round" d="M198.996,309.234
	c-6.772,0-12.269,5.497-12.269,12.27c0,2.715,0.902,5.252,2.396,7.286c-5.987,3.441-10.064,9.857-10.064,17.255
	c0,6.239,2.889,11.776,7.38,15.434c-9.199,3.245-22.717,17.015-22.717,41.316h70.546c0-24.301-13.518-38.071-22.717-41.316
	c4.491-3.657,7.381-9.194,7.381-15.434c0-7.397-4.077-13.813-10.064-17.255c1.495-2.033,2.396-4.57,2.396-7.286
	C211.265,314.731,205.768,309.234,198.996,309.234z"/>
<path id="path17042" stroke="#FFFFFF" stroke-width="5" stroke-linecap="round" d="M351.189,1056.848
	c-6.772,0-12.27,5.498-12.27,12.271c0,2.715,0.902,5.253,2.396,7.286c-5.987,3.441-10.064,9.857-10.064,17.255
	c0,6.239,2.89,11.776,7.381,15.434c-9.199,3.245-22.717,17.015-22.717,41.315h70.546c0-24.301-13.518-38.07-22.717-41.315
	c4.491-3.657,7.381-9.194,7.381-15.434c0-7.397-4.077-13.813-10.064-17.255c1.495-2.033,2.396-4.571,2.396-7.286
	C363.458,1062.346,357.962,1056.848,351.189,1056.848z"/>
<path id="path17044" stroke="#FFFFFF" stroke-width="5" stroke-linecap="round" d="M503.75,1056.848
	c-6.772,0-12.269,5.498-12.269,12.271c0,2.715,0.901,5.253,2.396,7.286c-5.986,3.441-10.064,9.857-10.064,17.255
	c0,6.239,2.89,11.776,7.381,15.434c-9.199,3.245-22.717,17.015-22.717,41.315h70.547c0-24.301-13.518-38.07-22.717-41.315
	c4.491-3.657,7.38-9.194,7.38-15.434c0-7.397-4.077-13.813-10.063-17.255c1.494-2.033,2.396-4.571,2.396-7.286
	C516.018,1062.346,510.522,1056.848,503.75,1056.848z"/>
<path id="path17046" stroke="#FFFFFF" stroke-width="5" stroke-linecap="round" d="M656.31,1056.848
	c-6.772,0-12.269,5.498-12.269,12.271c0,2.715,0.901,5.253,2.396,7.286c-5.987,3.441-10.064,9.857-10.064,17.255
	c0,6.239,2.89,11.776,7.38,15.434c-9.198,3.245-22.716,17.015-22.716,41.315h70.546c0-24.301-13.518-38.07-22.717-41.315
	c4.491-3.657,7.381-9.194,7.381-15.434c0-7.397-4.077-13.813-10.064-17.255c1.494-2.033,2.396-4.571,2.396-7.286
	C668.58,1062.346,663.083,1056.848,656.31,1056.848z"/>
<path id="path17048" stroke="#FFFFFF" stroke-width="5" stroke-linecap="round" d="M806.872,1056.848
	c-6.772,0-12.27,5.498-12.27,12.271c0,2.715,0.902,5.253,2.396,7.286c-5.987,3.441-10.064,9.857-10.064,17.255
	c0,6.239,2.89,11.776,7.381,15.434c-9.199,3.245-22.717,17.015-22.717,41.315h70.546c0-24.301-13.518-38.07-22.717-41.315
	c4.491-3.657,7.381-9.194,7.381-15.434c0-7.397-4.077-13.813-10.064-17.255c1.495-2.033,2.396-4.571,2.396-7.286
	C819.141,1062.346,813.644,1056.848,806.872,1056.848z"/>
<path id="path17050" stroke="#FFFFFF" stroke-width="5" stroke-linecap="round" d="M953.432,1056.848
	c-6.772,0-12.269,5.498-12.269,12.271c0,2.715,0.901,5.253,2.396,7.286c-5.986,3.441-10.063,9.857-10.063,17.255
	c0,6.239,2.889,11.776,7.38,15.434c-9.199,3.245-22.717,17.015-22.717,41.315h70.547c0-24.301-13.518-38.07-22.717-41.315
	c4.491-3.657,7.38-9.194,7.38-15.434c0-7.397-4.077-13.813-10.063-17.255c1.494-2.033,2.396-4.571,2.396-7.286
	C965.701,1062.346,960.205,1056.848,953.432,1056.848z"/>
<path id="path17052" stroke="#FFFFFF" stroke-width="5" stroke-linecap="round" d="M1101.993,1056.848
	c-6.772,0-12.269,5.498-12.269,12.271c0,2.715,0.901,5.253,2.396,7.286c-5.987,3.441-10.064,9.857-10.064,17.255
	c0,6.239,2.89,11.776,7.38,15.434c-9.198,3.245-22.716,17.015-22.716,41.315h70.546c0-24.301-13.518-38.07-22.717-41.315
	c4.491-3.657,7.381-9.194,7.381-15.434c0-7.397-4.077-13.813-10.064-17.255c1.494-2.033,2.396-4.571,2.396-7.286
	C1114.263,1062.346,1108.766,1056.848,1101.993,1056.848z"/>
<path id="path17054" stroke="#FFFFFF" stroke-width="5" stroke-linecap="round" d="M1250.555,1056.848
	c-6.773,0-12.27,5.498-12.27,12.271c0,2.715,0.901,5.253,2.396,7.286c-5.987,3.441-10.064,9.857-10.064,17.255
	c0,6.239,2.89,11.776,7.381,15.434c-9.199,3.245-22.717,17.015-22.717,41.315h70.546c0-24.301-13.518-38.07-22.717-41.315
	c4.491-3.657,7.381-9.194,7.381-15.434c0-7.397-4.077-13.813-10.064-17.255c1.495-2.033,2.396-4.571,2.396-7.286
	C1262.823,1062.346,1257.326,1056.848,1250.555,1056.848z"/>
<g id="g46309" transform="translate(387.23684,-141.1382)">
	<path id="path46311" fill="none" stroke="#FFFFFF" stroke-width="10" stroke-linejoin="round" d="M-227.128,1436.207h85.549v-9.705
		h-85.549v9.096V1436.207z"/>
	<path id="path46313" fill="none" stroke="#FFFFFF" stroke-width="5" stroke-linejoin="round" d="M-217.25,1415.526l5.106-8.088
		h54.832l5.106,8.088H-217.25z"/>
	<path id="path46315" fill="none" stroke="#FFFFFF" stroke-width="10" stroke-linejoin="round" d="M-217.273,1428.466v-12.94h65.519
		v12.94H-217.273z"/>
	<path id="path46317" fill="none" stroke="#FFFFFF" stroke-width="10" d="M-211.429,1407.438v-42.055h53.403v42.055H-211.429z"/>
	<path id="path46319" fill="none" stroke="#FFFFFF" stroke-width="10" stroke-linejoin="round" d="M-210.536,1367.258l-10.212-8.087
		l72.719-0.179l-10.212,8.087L-210.536,1367.258z"/>
	<path id="path46321" fill="none" stroke="#FFFFFF" stroke-width="10" stroke-linejoin="round" d="M-220.748,1357.297v-14.746
		h13.901v6.47h14.02v-6.47h18.163v6.47h12.091v-6.47h14.401v14.746H-220.748z"/>
	<path id="path46323" stroke="#000000" stroke-width="1.5" stroke-linejoin="round" d="M-225.792,1436.133h82.815v-9.203h-82.815
		V1436.133z"/>
	<path id="path46325" stroke="#000000" stroke-width="1.5" stroke-linejoin="round" d="M-215.057,1414.66l4.601-7.669h52.143
		l4.601,7.669H-215.057z"/>
	<path id="path46327" stroke="#000000" stroke-width="1.5" stroke-linejoin="round" d="M-216.59,1426.93v-12.271h64.412v12.271
		H-216.59z"/>
	<path id="path46329" stroke="#000000" stroke-width="1.5" d="M-210.456,1406.991v-39.878h52.143v39.878H-210.456z"/>
	<path id="path46331" stroke="#000000" stroke-width="1.5" stroke-linejoin="round" d="M-210.456,1367.113l-9.202-7.669h70.546
		l-9.202,7.669H-210.456z"/>
	<path id="path46333" stroke="#000000" stroke-width="1.5" stroke-linejoin="round" d="M-219.658,1359.444v-15.338h12.269v6.136
		h15.336v-6.136h15.336v6.136h15.336v-6.136h12.269v15.338H-219.658z"/>
	<path id="path46335" fill="none" stroke="#FFFFFF" stroke-width="4" stroke-linecap="round" d="M-216.59,1423.968h64.412l0,0"/>
	<path id="path46337" fill="none" stroke="#FFFFFF" stroke-width="4" stroke-linecap="round" d="M-213.523,1412.055h58.277"/>
	<path id="path46339" fill="none" stroke="#FFFFFF" stroke-linecap="round" d="M-210.456,1406.991h52.143"/>
	<path id="path46341" fill="none" stroke="#FFFFFF" stroke-linecap="round" d="M-210.456,1367.113h52.143"/>
	<path id="path46343" fill="none" stroke="#FFFFFF" stroke-width="4" stroke-linecap="round" d="M-219.658,1359.444h70.546"/>
</g>
<g id="g46345" transform="translate(1436.8466,-141.1382)">
	<path id="path46347" fill="none" stroke="#FFFFFF" stroke-width="10" stroke-linejoin="round" d="M-227.128,1436.207h85.55v-9.705
		h-85.55v9.096V1436.207z"/>
	<path id="path46349" fill="none" stroke="#FFFFFF" stroke-width="5" stroke-linejoin="round" d="M-217.249,1415.526l5.105-8.088
		h54.831l5.106,8.088H-217.249z"/>
	<path id="path46351" fill="none" stroke="#FFFFFF" stroke-width="10" stroke-linejoin="round" d="M-217.272,1428.466v-12.94h65.518
		v12.94H-217.272z"/>
	<path id="path46353" fill="none" stroke="#FFFFFF" stroke-width="10" d="M-211.43,1407.438v-42.055h53.403v42.055H-211.43z"/>
	<path id="path46355" fill="none" stroke="#FFFFFF" stroke-width="10" stroke-linejoin="round" d="M-210.536,1367.258l-10.212-8.087
		l72.719-0.179l-10.212,8.087L-210.536,1367.258z"/>
	<path id="path46357" fill="none" stroke="#FFFFFF" stroke-width="10" stroke-linejoin="round" d="M-220.748,1357.297v-14.746
		h13.901v6.47h14.02v-6.47h18.162v6.47h12.092v-6.47h14.401v14.746H-220.748z"/>
	<path id="path46359" stroke="#000000" stroke-width="1.5" stroke-linejoin="round" d="M-225.792,1436.133h82.814v-9.203h-82.814
		V1436.133z"/>
	<path id="path46361" stroke="#000000" stroke-width="1.5" stroke-linejoin="round" d="M-215.057,1414.66l4.601-7.669h52.143
		l4.602,7.669H-215.057z"/>
	<path id="path46363" stroke="#000000" stroke-width="1.5" stroke-linejoin="round" d="M-216.591,1426.93v-12.271h64.412v12.271
		H-216.591z"/>
	<path id="path46365" stroke="#000000" stroke-width="1.5" d="M-210.456,1406.991v-39.878h52.143v39.878H-210.456z"/>
	<path id="path46367" stroke="#000000" stroke-width="1.5" stroke-linejoin="round" d="M-210.456,1367.113l-9.201-7.669h70.546
		l-9.202,7.669H-210.456z"/>
	<path id="path46369" stroke="#000000" stroke-width="1.5" stroke-linejoin="round" d="M-219.657,1359.444v-15.338h12.269v6.136
		h15.336v-6.136h15.336v6.136h15.337v-6.136h12.269v15.338H-219.657z"/>
	<path id="path46371" fill="none" stroke="#FFFFFF" stroke-width="4" stroke-linecap="round" d="M-216.591,1423.968h64.412l0,0"/>
	<path id="path46373" fill="none" stroke="#FFFFFF" stroke-width="4" stroke-linecap="round" d="M-213.523,1412.055h58.277"/>
	<path id="path46375" fill="none" stroke="#FFFFFF" stroke-linecap="round" d="M-210.456,1406.991h52.143"/>
	<path id="path46377" fill="none" stroke="#FFFFFF" stroke-linecap="round" d="M-210.456,1367.113h52.143"/>
	<path id="path46379" fill="none" stroke="#FFFFFF" stroke-width="4" stroke-linecap="round" d="M-219.657,1359.444h70.546"/>
</g>
<g id="g60673" transform="translate(-46.701869,-1668.1226)">
	<path id="path60675" d="M395.847,1836.291c37.531,4.162,54.642,26.149,53.007,94.792h-75.885
		c-0.894-36.918,30.719-21.425,24.182-68.821"/>
	<path id="path60677" d="M405.986,1863.176c1.37,9.71-16.586,24.578-25.312,30.02c-10.696,6.671-10.052,14.485-17.828,13.342
		c-4.118-5.333,0.435-5.904-3.565-3.335c-3.565,0-14.273,3.335-14.262-13.342c0-6.671,18.894-40.026,18.894-40.026
		s5.295-6.345,5.702-11.674c-2.589-3.317-1.068-6.671-1.068-10.006c3.565-3.336,12.661,8.339,12.661,8.339h4.274
		c0,0,3.681-6.645,9.807-10.007c3.565,0,3.565,10.007,3.565,10.007"/>
	<path id="path60679" fill="#F2F2F2" d="M354.994,1886.955c0,0.902-0.732,1.634-1.635,1.634s-1.634-0.732-1.634-1.634
		c0-0.903,0.731-1.634,1.634-1.634S354.994,1886.052,354.994,1886.955z"/>
	<path id="path60681" fill="#F2F2F2" d="M372.75,1855.085c-1.354,2.345-3.084,3.88-3.866,3.429
		c-0.781-0.452-0.317-2.718,1.036-5.063s3.085-3.88,3.866-3.429C374.568,1850.474,374.104,1852.741,372.75,1855.085z"/>
	<path id="path60683" d="M404.181,1837.598l-0.98,3.596l1.798,0.327c10.137,1.56,20.667,7.303,28.025,21.226
		s9.551,35.835,7.926,68.335l-0.163,0.027h5.72v-0.027c1.643-32.873-2.865-55.088-10.622-69.766
		c-7.758-14.678-18.921-21.682-30.028-23.391L404.181,1837.598z"/>
	<path id="path60685" fill="#FFFFFF" stroke="#000000" stroke-linecap="round" d="M396.952,1839.188
		c32.206,3.068,50.609,24.541,49.076,88.959h-70.547c0-27.608,30.673-19.939,24.538-64.419"/>
	<path id="path60687" fill="#FFFFFF" stroke="#000000" stroke-linecap="round" stroke-linejoin="round" d="M403.086,1863.728
		c1.18,8.931-17.032,22.604-24.538,27.608c-9.201,6.135-8.646,13.322-15.336,12.271c-3.195-2.896,4.335-9.318,0-9.203
		c-3.067,0,0.574,3.778-3.067,6.135c-3.067,0-12.278,3.068-12.269-12.27c0-6.135,18.403-36.811,18.403-36.811
		s5.784-5.835,6.135-10.737c-2.228-3.05-1.534-6.135-1.534-9.203c3.067-3.067,9.202,7.669,9.202,7.669h6.134
		c0,0,2.398-6.11,7.669-9.203c3.066,0,3.066,9.203,3.066,9.203"/>
	<path id="path60689" stroke="#000000" stroke-width="0.326" stroke-linecap="round" stroke-linejoin="round" d="M358.612,1886.735
		c0,0.847-0.687,1.534-1.534,1.534c-0.847,0-1.533-0.687-1.533-1.534s0.687-1.534,1.533-1.534
		C357.925,1885.201,358.612,1885.888,358.612,1886.735z"/>
	<path id="path60691" stroke="#000000" stroke-width="0.326" stroke-linecap="round" stroke-linejoin="round" d="M375.276,1856.826
		c-1.271,2.201-2.895,3.642-3.629,3.218c-0.733-0.423-0.298-2.551,0.973-4.751s2.896-3.642,3.629-3.218
		C376.982,1852.498,376.546,1854.625,375.276,1856.826z"/>
	<path id="path60693" d="M403.845,1840.415l-0.921,3.375l1.688,0.307c9.513,1.464,19.396,6.854,26.302,19.92
		c6.905,13.066,9.891,32.666,8.366,63.167l-0.153,1.534h5.367v-1.534c1.543-30.85-3.616-50.734-10.896-64.509
		c-7.28-13.774-17.756-20.348-28.181-21.952L403.845,1840.415z"/>
</g>
<g id="g60695" transform="translate(708.02591,-1668.1226)">
	<path id="path60697" d="M395.847,1836.291c37.531,4.162,54.642,26.149,53.008,94.792h-75.886
		c-0.893-36.918,30.719-21.425,24.183-68.821"/>
	<path id="path60699" d="M405.986,1863.176c1.371,9.71-16.586,24.578-25.311,30.02c-10.697,6.671-10.053,14.485-17.828,13.342
		c-4.119-5.333,0.434-5.904-3.566-3.335c-3.565,0-14.273,3.335-14.262-13.342c0-6.671,18.894-40.026,18.894-40.026
		s5.296-6.345,5.702-11.674c-2.588-3.317-1.068-6.671-1.068-10.006c3.566-3.336,12.661,8.339,12.661,8.339h4.274
		c0,0,3.681-6.645,9.807-10.007c3.566,0,3.566,10.007,3.566,10.007"/>
	<path id="path60701" fill="#F2F2F2" d="M354.993,1886.955c0,0.902-0.731,1.634-1.635,1.634c-0.902,0-1.634-0.732-1.634-1.634
		c0-0.903,0.731-1.634,1.634-1.634C354.262,1885.321,354.993,1886.052,354.993,1886.955z"/>
	<path id="path60703" fill="#F2F2F2" d="M372.75,1855.085c-1.354,2.345-3.085,3.88-3.866,3.429
		c-0.782-0.452-0.318-2.718,1.035-5.063c1.354-2.345,3.085-3.88,3.867-3.429C374.568,1850.474,374.104,1852.741,372.75,1855.085z"/>
	<path id="path60705" d="M404.181,1837.598l-0.98,3.596l1.798,0.327c10.137,1.56,20.667,7.303,28.026,21.226
		c7.358,13.923,9.55,35.835,7.925,68.335l-0.163,0.027h5.72v-0.027c1.644-32.873-2.864-55.088-10.622-69.766
		s-18.92-21.682-30.027-23.391L404.181,1837.598z"/>
	<path id="path60707" fill="#FFFFFF" stroke="#000000" stroke-linecap="round" d="M396.952,1839.188
		c32.205,3.068,50.609,24.541,49.075,88.959h-70.546c0-27.608,30.672-19.939,24.537-64.419"/>
	<path id="path60709" fill="#FFFFFF" stroke="#000000" stroke-linecap="round" stroke-linejoin="round" d="M403.086,1863.728
		c1.18,8.931-17.032,22.604-24.538,27.608c-9.201,6.135-8.646,13.322-15.336,12.271c-3.195-2.896,4.336-9.318,0-9.203
		c-3.066,0,0.575,3.778-3.066,6.135c-3.067,0-12.279,3.068-12.27-12.27c0-6.135,18.403-36.811,18.403-36.811
		s5.784-5.835,6.135-10.737c-2.228-3.05-1.534-6.135-1.534-9.203c3.067-3.067,9.202,7.669,9.202,7.669h6.135
		c0,0,2.397-6.11,7.668-9.203c3.067,0,3.067,9.203,3.067,9.203"/>
	<path id="path60711" stroke="#000000" stroke-width="0.326" stroke-linecap="round" stroke-linejoin="round" d="M358.612,1886.735
		c0,0.847-0.687,1.534-1.533,1.534c-0.848,0-1.534-0.687-1.534-1.534s0.687-1.534,1.534-1.534
		C357.925,1885.201,358.612,1885.888,358.612,1886.735z"/>
	<path id="path60713" stroke="#000000" stroke-width="0.326" stroke-linecap="round" stroke-linejoin="round" d="M375.276,1856.826
		c-1.271,2.201-2.895,3.642-3.628,3.218c-0.733-0.423-0.299-2.551,0.972-4.751s2.896-3.642,3.629-3.218
		C376.982,1852.498,376.546,1854.625,375.276,1856.826z"/>
	<path id="path60715" d="M403.845,1840.415l-0.92,3.375l1.687,0.307c9.513,1.464,19.396,6.854,26.302,19.92
		c6.905,13.066,9.892,32.666,8.366,63.167l-0.153,1.534h5.368v-1.534c1.542-30.85-3.617-50.734-10.897-64.509
		c-7.28-13.774-17.756-20.348-28.18-21.952L403.845,1840.415z"/>
</g>
<g id="g49858" transform="translate(870.83529,-632.2441)">
	<path id="path48825" fill="#FFFFFF" d="M231.714,1837.494c37.531,4.161,54.642,26.148,53.007,94.791h-75.885
		c-0.894-36.918,30.719-21.425,24.182-68.82"/>
	<path id="path48827" fill="#FFFFFF" d="M241.853,1864.379c1.37,9.711-16.586,24.578-25.312,30.02
		c-10.696,6.671-10.052,14.486-17.828,13.342c-4.118-5.332,0.435-5.903-3.565-3.335c-3.565,0-14.273,3.335-14.263-13.343
		c0-6.671,18.895-40.025,18.895-40.025s5.295-6.346,5.702-11.675c-2.589-3.317-1.068-6.671-1.068-10.007
		c3.565-3.335,12.661,8.339,12.661,8.339h4.274c0,0,3.681-6.644,9.807-10.007c3.565,0,3.565,10.007,3.565,10.007"/>
	<path id="path48829" fill="#F2F2F2" d="M190.861,1888.158c0,0.902-0.732,1.634-1.635,1.634s-1.634-0.731-1.634-1.634
		s0.731-1.635,1.634-1.635S190.861,1887.256,190.861,1888.158z"/>
	<path id="path48831" fill="#F2F2F2" d="M208.618,1856.289c-1.354,2.345-3.085,3.88-3.867,3.429
		c-0.781-0.451-0.317-2.719,1.036-5.063s3.085-3.88,3.866-3.429C210.435,1851.677,209.971,1853.943,208.618,1856.289z"/>
	<path id="path48833" fill="#FFFFFF" d="M240.048,1838.801l-0.98,3.596l1.798,0.327c10.137,1.56,20.667,7.303,28.025,21.226
		c7.358,13.924,9.551,35.835,7.926,68.336l-0.163,0.027h5.72v-0.027c1.643-32.873-2.865-55.088-10.622-69.766
		c-7.758-14.678-18.921-21.683-30.028-23.392L240.048,1838.801z"/>
	<path id="path48837" stroke="#000000" stroke-linecap="round" d="M232.819,1840.391c32.206,3.067,50.609,24.541,49.076,88.959
		h-70.547c0-27.607,30.673-19.939,24.538-64.418"/>
	<path id="path48839" stroke="#000000" stroke-linecap="round" stroke-linejoin="round" d="M238.954,1864.932
		c1.18,8.93-17.032,22.604-24.538,27.607c-9.201,6.135-8.646,13.322-15.336,12.271c-3.195-2.896,4.335-9.318,0-9.203
		c-3.067,0,0.575,3.778-3.067,6.136c-3.067,0-12.278,3.067-12.269-12.271c0-6.135,18.403-36.811,18.403-36.811
		s5.784-5.835,6.135-10.736c-2.228-3.051-1.534-6.136-1.534-9.203c3.067-3.067,9.202,7.669,9.202,7.669h6.134
		c0,0,2.398-6.11,7.669-9.203c3.066,0,3.066,9.203,3.066,9.203"/>
	<path id="path48841" fill="#FFFFFF" stroke="#FFFFFF" stroke-width="0.326" stroke-linecap="round" stroke-linejoin="round" d="
		M194.479,1887.938c0,0.848-0.687,1.534-1.534,1.534c-0.847,0-1.533-0.687-1.533-1.534c0-0.847,0.687-1.533,1.533-1.533
		C193.793,1886.404,194.479,1887.091,194.479,1887.938z"/>
	<path id="path48843" fill="#FFFFFF" stroke="#FFFFFF" stroke-width="0.326" stroke-linecap="round" stroke-linejoin="round" d="
		M211.143,1858.029c-1.271,2.2-2.895,3.642-3.629,3.218c-0.733-0.424-0.298-2.551,0.973-4.752c1.271-2.2,2.895-3.642,3.629-3.218
		C212.849,1853.701,212.414,1855.828,211.143,1858.029z"/>
	<path id="path48845" fill="#FFFFFF" d="M239.712,1841.617l-0.921,3.375l1.688,0.307c9.513,1.464,19.396,6.854,26.302,19.92
		c6.905,13.066,9.892,32.666,8.366,63.167l-0.153,1.533h5.367v-1.533c1.543-30.851-3.616-50.734-10.896-64.509
		c-7.28-13.775-17.756-20.349-28.181-21.952L239.712,1841.617z"/>
</g>
<g id="g60728" transform="translate(120.82828,-632.2441)">
	<path id="path60730" fill="#FFFFFF" d="M231.715,1837.494c37.531,4.161,54.642,26.148,53.007,94.791h-75.885
		c-0.894-36.918,30.719-21.425,24.182-68.82"/>
	<path id="path60732" fill="#FFFFFF" d="M241.853,1864.379c1.37,9.711-16.586,24.578-25.312,30.02
		c-10.696,6.671-10.052,14.486-17.828,13.342c-4.118-5.332,0.435-5.903-3.565-3.335c-3.565,0-14.274,3.335-14.263-13.343
		c0-6.671,18.894-40.025,18.894-40.025s5.296-6.346,5.703-11.675c-2.589-3.317-1.068-6.671-1.068-10.007
		c3.565-3.335,12.661,8.339,12.661,8.339h4.274c0,0,3.68-6.644,9.807-10.007c3.565,0,3.565,10.007,3.565,10.007"/>
	<path id="path60734" fill="#F2F2F2" d="M190.86,1888.158c0,0.902-0.731,1.634-1.634,1.634s-1.634-0.731-1.634-1.634
		s0.731-1.635,1.634-1.635S190.86,1887.256,190.86,1888.158z"/>
	<path id="path60736" fill="#F2F2F2" d="M208.617,1856.289c-1.354,2.345-3.085,3.88-3.866,3.429s-0.317-2.719,1.036-5.063
		s3.085-3.88,3.866-3.429C210.435,1851.677,209.971,1853.943,208.617,1856.289z"/>
	<path id="path60738" fill="#FFFFFF" d="M240.049,1838.801l-0.98,3.596l1.798,0.327c10.136,1.56,20.667,7.303,28.025,21.226
		c7.358,13.924,9.551,35.835,7.926,68.336l-0.163,0.027h5.719v-0.027c1.644-32.873-2.864-55.088-10.622-69.766
		c-7.757-14.678-18.92-21.683-30.027-23.392L240.049,1838.801z"/>
	<path id="path60740" stroke="#000000" stroke-linecap="round" d="M232.819,1840.391c32.206,3.067,50.609,24.541,49.076,88.959
		h-70.547c0-27.607,30.673-19.939,24.538-64.418"/>
	<path id="path60742" stroke="#000000" stroke-linecap="round" stroke-linejoin="round" d="M238.954,1864.932
		c1.179,8.93-17.032,22.604-24.538,27.607c-9.201,6.135-8.646,13.322-15.336,12.271c-3.195-2.896,4.335-9.318,0-9.203
		c-3.067,0,0.574,3.778-3.067,6.136c-3.067,0-12.278,3.067-12.269-12.271c0-6.135,18.404-36.811,18.404-36.811
		s5.784-5.835,6.134-10.736c-2.227-3.051-1.533-6.136-1.533-9.203c3.067-3.067,9.202,7.669,9.202,7.669h6.134
		c0,0,2.398-6.11,7.668-9.203c3.067,0,3.067,9.203,3.067,9.203"/>
	<path id="path60744" fill="#FFFFFF" stroke="#FFFFFF" stroke-width="0.326" stroke-linecap="round" stroke-linejoin="round" d="
		M194.479,1887.938c0,0.848-0.687,1.534-1.534,1.534c-0.847,0-1.533-0.687-1.533-1.534c0-0.847,0.687-1.533,1.533-1.533
		C193.793,1886.404,194.479,1887.091,194.479,1887.938z"/>
	<path id="path60746" fill="#FFFFFF" stroke="#FFFFFF" stroke-width="0.326" stroke-linecap="round" stroke-linejoin="round" d="
		M211.143,1858.029c-1.271,2.2-2.896,3.642-3.629,3.218s-0.298-2.551,0.973-4.752c1.271-2.2,2.895-3.642,3.629-3.218
		C212.849,1853.701,212.414,1855.828,211.143,1858.029z"/>
	<path id="path60748" fill="#FFFFFF" d="M239.713,1841.617l-0.921,3.375l1.688,0.307c9.513,1.464,19.396,6.854,26.301,19.92
		c6.906,13.066,9.892,32.666,8.367,63.167l-0.153,1.533h5.367v-1.533c1.543-30.851-3.616-50.734-10.896-64.509
		c-7.28-13.775-17.756-20.349-28.181-21.952L239.713,1841.617z"/>
</g>
<g id="g63721" transform="translate(607.11205,1125.2066)">
	<g id="g60798" transform="matrix(3.4156897,0,0,3.3289941,-1005.3432,-2662.945)">
		<path id="path60800" fill="#FFFFFF" stroke="#FFFFFF" stroke-width="0.4448" stroke-linejoin="round" d="M250.786,848.362
			c2.471-1.234,10.115,0.128,13.5-2.303c3.385,2.431,11.125,0.964,13.352,2.303c2.202,1.325,1.942,0.903,2.556,2.589
			c-0.677,0.972-1.054,1.593-2.408,1.107c-3.385-0.972-10.115,0.458-13.5-1c-3.385,1.458-10.114,0.028-13.5,1
			c-1.354,0.486-1.731-0.21-2.408-1.183C249.731,848.93,248.435,849.535,250.786,848.362z"/>
		<path id="path60802" fill="#FFFFFF" stroke="#FFFFFF" stroke-width="0.4448" stroke-linejoin="round" d="M256.786,845.557
			c2.5,2.5,12.5,2.5,15,0c0.5-1.5,0-2,0-2c0-2.5-2.062-4-2.062-4c5.5-1.5,5.562-11.5-5.438-15.5c-11,4-10.722,14.152-5.222,15.652
			c0,0-2.352,0.969-2.352,3.469C256.712,843.178,256.286,844.057,256.786,845.557z"/>
		<path id="path60804" fill="#FFFFFF" stroke="#FFFFFF" stroke-width="0.3651" stroke-linejoin="round" d="M267.311,822.842
			c0,1.636-1.402,2.962-3.132,2.962c-1.73,0-3.132-1.326-3.132-2.962c0-1.636,1.402-2.962,3.132-2.962
			C265.908,819.879,267.311,821.206,267.311,822.842z"/>
		<path id="path60806" fill="#FF8BFF" stroke="#FF78FF" stroke-width="0.4448" stroke-linecap="round" d="M259.286,839.557h10"/>
		<path id="path60810" fill="#FF8BFF" stroke="#FF78FF" stroke-width="0.4448" stroke-linecap="round" d="M264.285,829.057v5"/>
		<path id="path60812" fill="#FF8BFF" stroke="#FF78FF" stroke-width="0.4448" stroke-linecap="round" d="M261.786,831.557h5"/>
	</g>
	<g id="g60782" transform="matrix(3.067229,0,0,3.067558,-913.48194,-2443.602)">
		<path id="path60784" stroke="#000000" stroke-width="0.489" stroke-linejoin="round" d="M250.786,849.557
			c3.385-0.973,10.114,0.431,13.5-2c3.385,2.431,10.115,1.028,13.5,2c0,0,1.646,0.542,3,2c-0.677,0.972-1.646,0.986-3,0.5
			c-3.385-0.973-10.115,0.458-13.5-1c-3.385,1.459-10.115,0.028-13.5,1c-1.354,0.486-2.323,0.472-3-0.5
			C249.14,849.612,250.786,849.557,250.786,849.557z"/>
		<path id="path60786" stroke="#000000" stroke-width="0.489" stroke-linejoin="round" d="M256.786,845.557c2.5,2.5,12.5,2.5,15,0
			c0.5-1.5,0-2,0-2c0-2.5-2.5-4-2.5-4c5.5-1.5,6-11.5-5-15.5c-11,4-10.5,14-5,15.5c0,0-2.5,1.5-2.5,4
			C256.786,843.557,256.286,844.057,256.786,845.557z"/>
		<path id="path60788" stroke="#000000" stroke-width="0.489" stroke-linejoin="round" d="M266.786,821.557
			c0,1.381-1.119,2.5-2.5,2.5c-1.381,0-2.5-1.119-2.5-2.5c0-1.381,1.119-2.5,2.5-2.5
			C265.666,819.057,266.786,820.176,266.786,821.557z"/>
		<path id="path60790" fill="none" stroke="#FFFFFF" stroke-width="0.489" stroke-linecap="round" d="M259.286,839.557h10"/>
		<path id="path60792" fill="none" stroke="#FFFFFF" stroke-width="0.489" stroke-linecap="round" d="M256.786,843.557h15"/>
		<path id="path60794" fill="none" stroke="#FFFFFF" stroke-width="0.489" stroke-linecap="round" d="M264.286,829.057v5"/>
		<path id="path60796" fill="none" stroke="#FFFFFF" stroke-width="0.489" stroke-linecap="round" d="M261.786,831.557h5"/>
	</g>
</g>
<g id="g63818" transform="translate(1059.5162,1125.2066)">
	<g id="g63820" transform="matrix(3.4156897,0,0,3.3289941,-1005.3432,-2662.945)">
		<path id="path63822" fill="#FFFFFF" stroke="#FFFFFF" stroke-width="0.4448" stroke-linejoin="round" d="M250.786,848.362
			c2.471-1.234,10.115,0.128,13.5-2.303c3.385,2.431,11.125,0.964,13.352,2.303c2.202,1.325,1.942,0.903,2.556,2.589
			c-0.677,0.972-1.054,1.593-2.408,1.107c-3.385-0.972-10.115,0.458-13.5-1c-3.385,1.458-10.115,0.028-13.5,1
			c-1.354,0.486-1.731-0.21-2.408-1.183C249.731,848.93,248.435,849.535,250.786,848.362z"/>
		<path id="path63824" fill="#FFFFFF" stroke="#FFFFFF" stroke-width="0.4448" stroke-linejoin="round" d="M256.786,845.557
			c2.5,2.5,12.5,2.5,15,0c0.5-1.5,0-2,0-2c0-2.5-2.062-4-2.062-4c5.5-1.5,5.562-11.5-5.438-15.5c-11,4-10.722,14.152-5.222,15.652
			c0,0-2.352,0.969-2.352,3.469C256.712,843.178,256.286,844.057,256.786,845.557z"/>
		<path id="path63826" fill="#FFFFFF" stroke="#FFFFFF" stroke-width="0.3651" stroke-linejoin="round" d="M267.311,822.842
			c0,1.636-1.402,2.962-3.132,2.962c-1.73,0-3.132-1.326-3.132-2.962c0-1.636,1.402-2.962,3.132-2.962
			C265.908,819.879,267.311,821.206,267.311,822.842z"/>
		<path id="path63828" fill="#FF8BFF" stroke="#FF78FF" stroke-width="0.4448" stroke-linecap="round" d="M259.286,839.557h10"/>
		<path id="path63830" fill="#FF8BFF" stroke="#FF78FF" stroke-width="0.4448" stroke-linecap="round" d="M264.286,829.057v5"/>
		<path id="path63832" fill="#FF8BFF" stroke="#FF78FF" stroke-width="0.4448" stroke-linecap="round" d="M261.786,831.557h5"/>
	</g>
	<g id="g63834" transform="matrix(3.067229,0,0,3.067558,-913.48194,-2443.602)">
		<path id="path63836" stroke="#000000" stroke-width="0.489" stroke-linejoin="round" d="M250.786,849.557
			c3.385-0.973,10.114,0.431,13.5-2c3.385,2.431,10.115,1.028,13.5,2c0,0,1.646,0.542,3,2c-0.677,0.972-1.646,0.986-3,0.5
			c-3.385-0.973-10.115,0.458-13.5-1c-3.385,1.459-10.115,0.028-13.5,1c-1.354,0.486-2.323,0.472-3-0.5
			C249.14,849.612,250.786,849.557,250.786,849.557z"/>
		<path id="path63838" stroke="#000000" stroke-width="0.489" stroke-linejoin="round" d="M256.786,845.557c2.5,2.5,12.5,2.5,15,0
			c0.5-1.5,0-2,0-2c0-2.5-2.5-4-2.5-4c5.5-1.5,6-11.5-5-15.5c-11,4-10.5,14-5,15.5c0,0-2.5,1.5-2.5,4
			C256.786,843.557,256.286,844.057,256.786,845.557z"/>
		<path id="path63840" stroke="#000000" stroke-width="0.489" stroke-linejoin="round" d="M266.786,821.557
			c0,1.381-1.119,2.5-2.5,2.5c-1.381,0-2.5-1.119-2.5-2.5c0-1.381,1.119-2.5,2.5-2.5
			C265.667,819.057,266.786,820.176,266.786,821.557z"/>
		<path id="path63842" fill="none" stroke="#FFFFFF" stroke-width="0.489" stroke-linecap="round" d="M259.286,839.557h10"/>
		<path id="path63844" fill="none" stroke="#FFFFFF" stroke-width="0.489" stroke-linecap="round" d="M256.786,843.557h15"/>
		<path id="path63846" fill="none" stroke="#FFFFFF" stroke-width="0.489" stroke-linecap="round" d="M264.286,829.057v5"/>
		<path id="path63848" fill="none" stroke="#FFFFFF" stroke-width="0.489" stroke-linecap="round" d="M261.786,831.557h5"/>
	</g>
</g>
<g id="g67023" transform="translate(-752.63535,880.75682)">
	<path id="path67025" fill="#FFFFFF" stroke="#FFFFFF" stroke-width="0.2277" stroke-linecap="round" stroke-linejoin="round" d="
		M1507.083,331.895c0,4.852-3.932,8.784-8.783,8.784c-4.85,0-8.783-3.933-8.783-8.784s3.934-8.783,8.783-8.783
		C1503.152,323.111,1507.083,327.043,1507.083,331.895z"/>
	<path id="path67027" fill="#FFFFFF" stroke="#FFFFFF" stroke-width="0.2277" stroke-linecap="round" stroke-linejoin="round" d="
		M1531.908,320.88c0,4.852-3.932,8.784-8.783,8.784c-4.85,0-8.783-3.933-8.783-8.784c0-4.851,3.934-8.783,8.783-8.783
		C1527.976,312.097,1531.908,316.029,1531.908,320.88z"/>
	<path id="path67029" fill="#FFFFFF" stroke="#FFFFFF" stroke-width="0.2277" stroke-linecap="round" stroke-linejoin="round" d="
		M1557.919,318.103c0,4.851-3.932,8.783-8.783,8.783s-8.783-3.933-8.783-8.783c0-4.852,3.932-8.784,8.783-8.784
		S1557.919,313.251,1557.919,318.103z"/>
	<path id="path67031" fill="#FFFFFF" stroke="#FFFFFF" stroke-width="0.2277" stroke-linecap="round" stroke-linejoin="round" d="
		M1584.183,323.153c0,4.851-3.932,8.783-8.783,8.783c-4.85,0-8.783-3.933-8.783-8.783c0-4.852,3.934-8.784,8.783-8.784
		C1580.251,314.369,1584.183,318.302,1584.183,323.153z"/>
	<path id="path67033" fill="#FFFFFF" stroke="#FFFFFF" stroke-width="1" stroke-linejoin="round" d="M1503.457,372.168
		c29.279-5.168,70.568-5.168,91.234,0l5.627-44.874l-22.092,32.843l-1.01-42.42l-18.188,43.476l-10.08-49.4l-9.83,48.643
		l-18.186-43.683l-0.254,46.162l-22.09-33.6L1503.457,372.168z"/>
	<path id="path67035" fill="#FFFFFF" stroke="#FFFFFF" stroke-width="1" stroke-linejoin="round" d="M1503.457,372.168
		c0,6.89,4.158,7.647,7.602,14.537c3.445,5.167,4.455,2.688,2.732,11.299c-5.166,3.445-5.166,8.612-5.166,8.612
		c-5.168,5.167,1.723,10.612,1.723,10.612c22.389,3.445,54.813,3.445,77.203,0c0,0,5.166-5.445,0-10.612
		c0,0,1.721-5.167-3.445-8.612c-1.723-8.611,0.299-6.89,3.742-12.057c3.445-6.89,6.592-6.89,6.592-13.779
		C1565.16,367,1532.736,367,1503.457,372.168z"/>
	<path id="path67037" fill="#FFFFFF" stroke="#FFFFFF" stroke-width="0.2277" stroke-linecap="round" stroke-linejoin="round" d="
		M1608.679,331.739c0,4.851-3.932,8.784-8.783,8.784c-4.85,0-8.783-3.934-8.783-8.784c0-4.852,3.934-8.784,8.783-8.784
		C1604.748,322.955,1608.679,326.888,1608.679,331.739z"/>
	<g id="g67039" transform="matrix(3.067229,0,0,3.067558,-1332.787,-2735.3764)">
		<path id="path67041" stroke="#000000" stroke-width="0.326" stroke-linecap="round" stroke-linejoin="round" d="M925.116,999.951
			c0,1.105-0.895,2-2,2c-1.104,0-1.999-0.895-1.999-2s0.895-2,1.999-2C924.221,997.951,925.116,998.847,925.116,999.951z"/>
		<path id="path67043" stroke="#000000" stroke-width="0.326" stroke-linecap="round" stroke-linejoin="round" d="M941.616,995.451
			c0,1.104-0.895,2-2,2c-1.104,0-2-0.896-2-2c0-1.105,0.895-2,2-2C940.721,993.451,941.616,994.347,941.616,995.451z"/>
		<path id="path67045" stroke="#000000" stroke-width="0.326" stroke-linecap="round" stroke-linejoin="round" d="M958.116,999.951
			c0,1.105-0.895,2-2,2c-1.104,0-2-0.895-2-2s0.896-2,2-2C957.221,997.951,958.116,998.847,958.116,999.951z"/>
		<path id="path67047" stroke="#000000" stroke-width="0.326" stroke-linecap="round" stroke-linejoin="round" d="M933.116,996.451
			c0,1.105-0.896,2-2,2c-1.105,0-2-0.895-2-2s0.895-2,2-2C932.22,994.451,933.116,995.347,933.116,996.451z"/>
		<path id="path67049" stroke="#000000" stroke-width="0.326" stroke-linecap="round" stroke-linejoin="round" d="M950.116,996.951
			c0,1.105-0.895,2-2,2s-2-0.896-2-2c0-1.104,0.895-2,2-2S950.116,995.847,950.116,996.951z"/>
		<path id="path67051" stroke="#000000" stroke-width="0.326" stroke-linejoin="round" d="M926.116,1013.951c8.5-1.5,21-1.5,27,0
			l2-12l-7,11v-14l-5.5,13.5l-3-15l-3,15l-5.5-14v14.5l-7-11L926.116,1013.951z"/>
		<path id="path67053" stroke="#000000" stroke-width="0.326" stroke-linejoin="round" d="M926.116,1013.951c0,2,1.5,2,2.5,4
			c1,1.5,1,1,0.5,3.5c-1.5,1-1.5,2.5-1.5,2.5c-1.5,1.5,0.501,2.5,0.501,2.5c6.5,1,16.5,1,23,0c0,0,1.5-1,0-2.5c0,0,0.5-1.5-1-2.5
			c-0.5-2.5-0.5-2,0.5-3.5c1-2,2.5-2,2.5-4C944.616,1012.451,934.616,1012.451,926.116,1013.951z"/>
		<path id="path67055" fill="none" stroke="#FFFFFF" stroke-width="0.326" stroke-linecap="round" stroke-linejoin="round" d="
			M928.616,1017.951c3.5-1,18.5-1,22,0"/>
		<path id="path67057" fill="none" stroke="#FFFFFF" stroke-width="0.326" stroke-linecap="round" stroke-linejoin="round" d="
			M929.116,1021.451c6-1,15-1,21,0"/>
		<path id="path67059" fill="none" stroke="#FFFFFF" stroke-width="0.326" stroke-linecap="round" stroke-linejoin="round" d="
			M927.616,1023.951c5-1,18.5-1,23.5,0"/>
	</g>
</g>
<g id="g70004" transform="translate(-649.87658,765.70571)">
	<g id="g67079" transform="matrix(3.677456,0,0,3.6776632,-684.87287,-2670.1206)">
		<path id="path67081" fill="#FFFFFF" stroke="#FFFFFF" stroke-width="1.6315" stroke-linecap="round" d="M539.02,848.199v-5.625"/>
		<path id="path67083" fill="#FFFFFF" stroke="#FFFFFF" stroke-width="0.4079" d="M539.02,859.736c0,0,4.775-7.569,3.275-10.569
			c0,0-1.275-2.431-3.275-2.431c-2,0-3.275,2.569-3.275,2.569C534.245,852.305,539.02,859.736,539.02,859.736"/>
		<path id="path67085" fill="#FFFFFF" stroke="#FFFFFF" stroke-width="0.4079" stroke-linecap="round" stroke-linejoin="round" d="
			M528.363,869.629c5.5,3.5,15.157,3.431,20.657-0.068l-0.069-6.313c0,0,7.352-3.607,4.352-9.607c-4-6.5-13.5-3.5-16,4l1.717,1.921
			v-3.5c-3.637-6.127-10.734-8.44-14.421-2.833c-3,6,3.627,10,3.627,10L528.363,869.629z"/>
		<path id="path67087" fill="#FFFFFF" stroke="#FFFFFF" stroke-width="1.6315" stroke-linecap="round" d="M536.52,844.574h5"/>
	</g>
	<g id="g67061" transform="matrix(3.067229,0,0,3.067558,-329.09607,-2142.8556)">
		<path id="path67063" fill="none" stroke="#000000" stroke-width="0.489" stroke-linecap="round" d="M530.292,844.402v-5.625"/>
		<path id="path67065" stroke="#000000" stroke-width="0.489" d="M530.292,857.777c0,0,4.5-7.5,3-10.5c0,0-1-2.5-3-2.5
			c-2,0-3,2.5-3,2.5C525.792,850.277,530.292,857.777,530.292,857.777"/>
		<path id="path67067" stroke="#000000" stroke-width="0.489" stroke-linecap="round" stroke-linejoin="round" d="M519.292,869.777
			c5.5,3.5,15.5,3.5,21,0v-7c0,0,9-4.5,6-10.5c-4-6.5-13.5-3.5-16,4v3.5v-3.5c-3.5-7.5-13-10.5-16-4c-3,6,5,10,5,10V869.777z"/>
		<path id="path67069" fill="none" stroke="#000000" stroke-width="0.489" stroke-linecap="round" d="M527.792,840.777h5"/>
		<path id="path67071" fill="none" stroke="#FFFFFF" stroke-width="0.489" stroke-linecap="round" d="M519.292,862.277
			c5.5-2.5,15.5-2.5,21,0.5"/>
		<path id="path67073" fill="none" stroke="#FFFFFF" stroke-width="0.489" stroke-linecap="round" stroke-linejoin="round" d="
			M519.292,869.777c5.5-2.5,15.5-2.5,21,0"/>
		<path id="path67075" fill="none" stroke="#FFFFFF" stroke-width="0.489" stroke-linecap="round" stroke-linejoin="round" d="
			M519.292,866.277c5.5-2,15.5-2,21,0"/>
		<path id="path67077" fill="none" stroke="#FFFFFF" stroke-width="0.489" stroke-linecap="round" stroke-linejoin="round" d="
			M539.792,862.277c0,0,8.5-4,6.026-9.654c-3.879-5.85-13.026-1.846-15.526,4.654l0.012,2.097l-0.012-2.097
			c-2.5-6.5-12.593-10.503-15.503-4.654c-2.497,5.654,4.848,9,4.848,9"/>
	</g>
</g>
<g id="g80246" transform="translate(-22.267609,-1633.6045)">
	<path id="path80248" fill="#FFFFFF" stroke="#FFFFFF" stroke-width="1" stroke-linejoin="round" d="M772.368,1852.594
		c29.278-5.167,72.082-3.021,92.749,2.146c0,0,10.279-44.535,6.384-50.369c-3.896-5.834-21.965,27.034-21.965,27.034l-3.409-42.42
		l-16.167,39.813c0,0-5.767-35.353-11.218-35.132c-5.45,0.221-10.586,36.016-10.586,36.016s-8.621-33.79-15.661-33.454
		c-7.167,0.336-4.42,35.808-4.42,35.808s-16.775-31.037-20.702-25.898S772.368,1852.594,772.368,1852.594z"/>
	<path id="path80250" fill="#FFFFFF" stroke="#FFFFFF" stroke-width="1" stroke-linejoin="round" d="M771.231,1847.413
		c0,7.295,1.277,11.128,7.33,17.286c1.759,2.693,4.382,3.224,2.24,8.555c-5.669,3.647-5.795,11.139-5.795,11.139
		c-1.755,5.218,2.016,11.11,2.016,11.11c24.564,3.647,56.479,3.66,82.178,0.379c0,0,3.396-4.502,2.146-9.974
		c0,0,0.248-8.375-4.157-12.149c-1.006-6.72,1.084-6.411,3.727-10.115c4.032-6.158,5.338-7.295,5.338-14.59
		C834.13,1843.583,803.354,1841.942,771.231,1847.413z"/>
	<path id="path80252" fill="#FFFFFF" stroke="#FFFFFF" stroke-width="0.1896" stroke-linecap="round" stroke-linejoin="round" d="
		M879.988,1809.009c0,5.827-4.723,10.551-10.55,10.551s-10.551-4.724-10.551-10.551c0-5.828,4.724-10.552,10.551-10.552
		S879.988,1803.181,879.988,1809.009z"/>
	<path id="path80254" fill="#FFFFFF" stroke="#FFFFFF" stroke-width="0.1896" stroke-linecap="round" stroke-linejoin="round" d="
		M778.683,1808.899c0,5.828-4.724,10.552-10.551,10.552c-5.826,0-10.55-4.724-10.55-10.552s4.724-10.552,10.55-10.552
		C773.959,1798.348,778.683,1803.072,778.683,1808.899z"/>
	<path id="path80256" fill="#FFFFFF" stroke="#000000" stroke-width="1.63" stroke-linecap="round" stroke-linejoin="round" d="
		M774.424,1809.07c0,3.388-2.747,6.135-6.135,6.135s-6.135-2.747-6.135-6.135c0-3.389,2.747-6.135,6.135-6.135
		S774.424,1805.682,774.424,1809.07z"/>
	<path id="path80258" fill="#FFFFFF" stroke="#FFFFFF" stroke-width="0.1896" stroke-linecap="round" stroke-linejoin="round" d="
		M829.317,1795.01c0,5.828-4.724,10.552-10.551,10.552c-5.826,0-10.55-4.724-10.55-10.552s4.724-10.552,10.55-10.552
		C824.593,1784.458,829.317,1789.182,829.317,1795.01z"/>
	<path id="path80260" fill="#FFFFFF" stroke="#000000" stroke-width="1.63" stroke-linecap="round" stroke-linejoin="round" d="
		M825.033,1795.266c0,3.388-2.746,6.135-6.134,6.135s-6.135-2.747-6.135-6.135s2.747-6.135,6.135-6.135
		S825.033,1791.878,825.033,1795.266z"/>
	<path id="path80262" fill="#FFFFFF" stroke="#000000" stroke-width="1.63" stroke-linecap="round" stroke-linejoin="round" d="
		M875.642,1809.07c0,3.388-2.746,6.135-6.134,6.135c-3.389,0-6.135-2.747-6.135-6.135c0-3.389,2.746-6.135,6.135-6.135
		C872.896,1802.935,875.642,1805.682,875.642,1809.07z"/>
	<path id="path80264" fill="#FFFFFF" stroke="#FFFFFF" stroke-width="0.1896" stroke-linecap="round" stroke-linejoin="round" d="
		M803.305,1798.293c0,5.827-4.724,10.551-10.55,10.551c-5.827,0-10.551-4.724-10.551-10.551c0-5.828,4.724-10.552,10.551-10.552
		C798.582,1787.741,803.305,1792.465,803.305,1798.293z"/>
	<path id="path80266" fill="#FFFFFF" stroke="#000000" stroke-width="1.63" stroke-linecap="round" stroke-linejoin="round" d="
		M798.961,1798.333c0,3.389-2.746,6.135-6.134,6.135c-3.389,0-6.135-2.747-6.135-6.135c0-3.388,2.746-6.135,6.135-6.135
		C796.215,1792.199,798.961,1794.945,798.961,1798.333z"/>
	<path id="path80268" fill="#FFFFFF" stroke="#FFFFFF" stroke-width="0.1896" stroke-linecap="round" stroke-linejoin="round" d="
		M855.581,1799.808c0,5.827-4.724,10.551-10.55,10.551c-5.827,0-10.551-4.724-10.551-10.551c0-5.828,4.724-10.552,10.551-10.552
		C850.857,1789.256,855.581,1793.98,855.581,1799.808z"/>
	<path id="path80270" fill="#FFFFFF" stroke="#000000" stroke-width="1.63" stroke-linecap="round" stroke-linejoin="round" d="
		M851.105,1799.867c0,3.389-2.747,6.135-6.135,6.135s-6.135-2.747-6.135-6.135c0-3.388,2.747-6.135,6.135-6.135
		S851.105,1796.479,851.105,1799.867z"/>
	<path id="path80272" fill="#FFFFFF" stroke="#000000" stroke-width="5" stroke-linejoin="round" d="M777.491,1852.016
		c26.071-4.602,64.412-4.602,82.815,0l6.135-36.811l-21.471,33.743v-42.946l-16.87,41.412l-9.201-46.013l-9.202,46.013
		l-16.869-42.946v44.479l-21.471-33.743L777.491,1852.016z"/>
	<path id="path80274" fill="#FFFFFF" stroke="#000000" stroke-width="5" stroke-linejoin="round" d="M777.491,1852.016
		c0,6.135,4.602,6.135,7.669,12.27c3.066,4.602,3.066,3.067,1.533,10.736c-4.601,3.067-4.601,7.669-4.601,7.669
		c-4.602,4.602,1.533,7.669,1.533,7.669c19.937,3.067,50.609,3.067,70.546,0c0,0,4.602-3.067,0-7.669c0,0,1.534-4.602-3.066-7.669
		c-1.534-7.669-1.534-6.135,1.533-10.736c3.067-6.135,7.668-6.135,7.668-12.27C834.235,1847.415,803.562,1847.415,777.491,1852.016z
		"/>
	<path id="path80276" fill="none" stroke="#000000" stroke-width="5" stroke-linecap="round" stroke-linejoin="round" d="
		M785.16,1864.286c10.734-3.067,56.743-3.067,67.479,0"/>
	<path id="path80278" fill="none" stroke="#000000" stroke-width="5" stroke-linecap="round" stroke-linejoin="round" d="
		M786.693,1875.022c18.403-3.067,46.008-3.067,64.412,0"/>
	<path id="path80280" fill="none" stroke="#000000" stroke-width="5" stroke-linecap="round" stroke-linejoin="round" d="
		M782.092,1882.691c15.336-3.067,56.743-3.067,72.079,0"/>
</g>
<g id="g82263" transform="translate(185.92124,-1616.3561)">
	<path id="path80321" fill="none" stroke="#FFFFFF" stroke-width="8" stroke-linecap="round" d="M466.207,1790.062v-16.385"/>
	<path id="path80323" fill="none" stroke="#FFFFFF" stroke-width="8" stroke-linecap="round" d="M458.412,1779.68h15.337"/>
	<path id="path80300" fill="none" stroke="#000000" stroke-width="5" stroke-linecap="round" d="M466.361,1790.951v-17.255"/>
	<path id="path80302" fill="#FFFFFF" stroke="#000000" stroke-width="5" d="M466.361,1831.98c0,0,13.803-23.007,9.201-32.21
		c0,0-3.066-7.668-9.201-7.668s-9.202,7.668-9.202,7.668C452.558,1808.973,466.361,1831.98,466.361,1831.98"/>
	<path id="path80304" fill="#FFFFFF" stroke="#000000" stroke-width="5" stroke-linecap="round" stroke-linejoin="round" d="
		M432.621,1868.791c16.869,10.736,47.542,10.736,64.411,0v-21.473c0,0,27.605-13.804,18.403-32.209
		c-12.269-19.939-41.407-10.736-49.075,12.271v10.736v-10.736c-10.735-23.007-39.874-32.209-49.076-12.271
		c-9.201,18.406,15.337,30.676,15.337,30.676V1868.791z"/>
	<path id="path80306" fill="none" stroke="#000000" stroke-width="5" stroke-linecap="round" d="M458.693,1779.831h15.336"/>
	<path id="path80308" fill="none" stroke="#000000" stroke-width="5" stroke-linecap="round" d="M432.621,1845.784
		c16.869-7.669,47.542-7.669,64.411,1.534"/>
	<path id="path80310" fill="none" stroke="#000000" stroke-width="5" stroke-linecap="round" stroke-linejoin="round" d="
		M432.621,1868.791c16.869-7.669,47.542-7.669,64.411,0"/>
	<path id="path80312" fill="none" stroke="#000000" stroke-width="5" stroke-linecap="round" stroke-linejoin="round" d="
		M432.621,1858.054c16.869-6.135,47.542-6.135,64.411,0"/>
</g>
</svg>
