<?xml version="1.0" encoding="utf-8"?>
<!-- Generator: Adobe Illustrator 14.0.0, SVG Export Plug-In . SVG Version: 6.00 Build 43363)  -->
<!DOCTYPE svg PUBLIC "-//W3C//DTD SVG 1.1//EN" "http://www.w3.org/Graphics/SVG/1.1/DTD/svg11.dtd">
<svg version="1.1" id="svg2" xmlns:svg="http://www.w3.org/2000/svg"
	 xmlns="http://www.w3.org/2000/svg" xmlns:xlink="http://www.w3.org/1999/xlink" x="0px" y="0px" width="1400px" height="1900px"
	 viewBox="0 0 1400 1900" enable-background="new 0 0 1400 1900" xml:space="preserve">
<g id="layer1">
	<path id="path1881" d="M97.877,1540.685c-3.4-3.4-3.4-1191.863,0-1195.263s1186.028-3.4,1189.429,0
		c3.399,3.4,3.399,1191.863,0,1195.263C1283.905,1544.084,101.277,1544.084,97.877,1540.685z M392.634,1465.633
		c0.336-43.764-0.188-67.998-1.526-70.498c-1.966-3.673-4.51-3.81-70.621-3.81c-50.749,0-69.189,0.606-70.917,2.333
		c-1.725,1.726-2.333,19.895-2.333,69.688c0,37.045,0.594,67.948,1.32,68.675c0.726,0.726,33.326,1.09,72.443,0.81l71.123-0.51
		L392.634,1465.633z M689.674,1462.31v-70.013h-72.93h-72.929l-0.511,70.522l-0.511,70.521l73.44-0.51l73.439-0.51V1462.31z
		 M989.683,1465.633c0.335-43.764-0.189-67.998-1.527-70.498c-1.967-3.676-4.522-3.81-72.566-3.81
		c-52.261,0-71.131,0.604-72.86,2.333c-1.726,1.726-2.334,19.895-2.334,69.688c0,37.045,0.594,67.948,1.319,68.674
		s34.2,1.091,74.388,0.811l73.068-0.51L989.683,1465.633z M1281.399,1464.484c0.368-48.806-0.114-68.591-1.717-70.523
		c-1.834-2.209-14.345-2.595-70.524-2.175l-68.295,0.511l-0.511,70.523l-0.51,70.522l70.522-0.511l70.522-0.511L1281.399,1464.484z
		 M242.215,1388.2c2.729-1.048,3.077-9.384,3.077-73.902v-72.722h-69.804c-61.858,0-69.938,0.351-70.984,3.077
		c-0.649,1.691-1.181,33.897-1.181,71.567c0,50.679,0.607,69.099,2.333,70.826c1.723,1.723,19.499,2.333,67.909,2.333
		C209.63,1389.38,240.523,1388.849,242.215,1388.2z M539.582,1386.949c3.037-2.227,3.272-8.408,2.803-73.416l-0.515-70.984
		l-71.827-0.51c-56.17-0.399-72.166,0.024-73.386,1.944c-0.856,1.351-1.571,33.242-1.588,70.87
		c-0.026,59.628,0.362,68.807,3.026,71.471c2.661,2.661,11.79,3.056,70.612,3.056
		C519.688,1389.38,537.079,1388.783,539.582,1386.949z M835.373,1388.2c2.729-1.048,3.077-9.386,3.077-73.926v-72.745l-72.443,0.51
		l-72.443,0.51l-0.511,71.827c-0.399,56.17,0.025,72.167,1.945,73.386C697.832,1389.561,830.746,1389.976,835.373,1388.2z
		 M1134.686,1386.949c3.037-2.227,3.272-8.408,2.802-73.416l-0.514-70.984l-72.8-0.51c-56.948-0.399-73.139,0.024-74.357,1.944
		c-0.857,1.351-1.572,33.242-1.589,70.87c-0.025,59.628,0.363,68.807,3.026,71.471c2.663,2.662,11.879,3.056,71.585,3.056
		C1114.598,1389.38,1132.18,1388.785,1134.686,1386.949z M391.914,1236.556c0.649-1.692,1.181-33.572,1.181-70.846
		c0-59.016-0.395-68.164-3.056-70.825c-2.659-2.658-11.66-3.057-69.168-3.057c-41.854,0-67.492,0.739-69.873,2.014
		c-3.613,1.934-3.762,4.804-3.762,72.605c0,38.825,0.583,71.175,1.296,71.888c0.713,0.714,33,1.297,71.749,1.297
		C382.73,1239.632,390.868,1239.282,391.914,1236.556z M690.185,1166.832c0.399-56.17-0.024-72.166-1.944-73.385
		c-2.834-1.799-137.693-2.214-142.321-0.438c-2.729,1.048-3.076,9.386-3.076,73.925v72.745l73.416-0.51l73.415-0.51
		L690.185,1166.832z M988.962,1236.556c0.649-1.692,1.181-33.572,1.181-70.846c0-59.016-0.395-68.164-3.056-70.825
		c-2.662-2.662-11.836-3.057-71.112-3.057c-43.194,0-69.431,0.736-71.818,2.014c-3.613,1.934-3.762,4.804-3.762,72.605
		c0,38.825,0.584,71.175,1.297,71.888c0.713,0.714,33.875,1.297,73.693,1.297C979.607,1239.632,987.915,1239.284,988.962,1236.556z
		 M1280.68,1236.556c0.649-1.692,1.181-33.897,1.181-71.567c0-50.679-0.607-69.1-2.334-70.826
		c-1.723-1.723-19.499-2.334-67.908-2.334c-36.066,0-66.959,0.531-68.651,1.181c-2.729,1.048-3.076,9.384-3.076,73.901v72.722
		h69.805C1271.553,1239.632,1279.634,1239.282,1280.68,1236.556z M244.319,1015.982v-72.93l-67.837-0.512
		c-48.447-0.365-68.598,0.119-70.498,1.696c-3.667,3.044-3.956,139.685-0.303,143.337c1.778,1.778,19.125,2.232,70.499,1.848
		l68.14-0.511V1015.982z M540.685,1087.224c1.579-1.902,2.062-22.811,1.696-73.415l-0.511-70.756l-70.984-0.514
		c-65.007-0.471-71.188-0.234-73.415,2.803c-3.138,4.279-3.525,134.975-0.418,140.78c1.933,3.611,4.793,3.762,71.719,3.762
		C525.361,1089.884,538.893,1089.383,540.685,1087.224z M837.478,1015.982v-72.93h-71.957h-71.957l-0.511,70.977
		c-0.281,39.036-0.086,72.084,0.435,73.439c0.744,1.938,16.165,2.354,72.468,1.953l71.522-0.511V1015.982z M1135.612,1087.55
		c3.346-3.346,3.346-139.79,0-143.136c-1.73-1.73-20.78-2.334-73.675-2.334h-71.341l-1.173,4.376
		c-2.098,7.827-1.377,135.621,0.787,139.666c1.934,3.613,4.803,3.762,72.541,3.762
		C1115.013,1089.884,1133.883,1089.279,1135.612,1087.55z M390.039,939.024c2.663-2.664,3.052-11.843,3.025-71.471
		c-0.016-37.628-0.73-69.52-1.588-70.87c-1.219-1.92-17.021-2.345-72.413-1.945l-70.855,0.511l-0.514,70.984
		c-0.471,65.008-0.235,71.189,2.803,73.416c2.5,1.833,19.698,2.431,69.901,2.431C378.336,942.08,387.379,941.684,390.039,939.024z
		 M688.24,940.462c1.92-1.219,2.344-17.216,1.944-73.386l-0.511-71.827h-72.93h-72.929l-0.511,71.827
		c-0.399,56.17,0.024,72.167,1.945,73.386C548.456,942.498,685.033,942.498,688.24,940.462z M987.087,939.024
		c2.663-2.664,3.052-11.843,3.026-71.471c-0.017-37.628-0.731-69.52-1.589-70.87c-1.219-1.92-17.409-2.344-74.357-1.944l-72.8,0.51
		l-0.514,70.984c-0.471,65.008-0.234,71.189,2.803,73.416c2.504,1.836,20.087,2.431,71.846,2.431
		C975.208,942.08,984.424,941.687,987.087,939.024z M1279.526,939.746c2.706-2.706,3.387-138.854,0.715-143.063
		c-1.218-1.919-16.633-2.345-70.469-1.945l-68.909,0.512l-0.511,71.827c-0.399,56.17,0.024,72.167,1.945,73.386
		C1146.503,943.132,1276.821,942.452,1279.526,939.746z M244.829,718.917l-0.51-71.471l-68.909-0.512
		c-53.835-0.399-69.25,0.025-70.469,1.944c-1.799,2.835-2.214,133.805-0.438,138.433c1.046,2.726,9.128,3.076,71.008,3.076h69.828
		L244.829,718.917z M541.87,718.431v-70.984l-71.827-0.511c-56.17-0.399-72.166,0.024-73.386,1.944
		c-1.805,2.843-2.21,133.813-0.429,138.455c1.064,2.771,8.82,3.046,73.416,2.59l72.226-0.51V718.431z M837.987,718.917l-0.51-71.471
		h-71.957h-71.957l-0.512,69.029c-0.281,37.966-0.09,70.128,0.425,71.471c0.729,1.897,16.979,2.441,72.979,2.441h72.042
		L837.987,718.917z M1136.974,718.431v-70.984l-72.8-0.511c-56.948-0.399-73.139,0.024-74.357,1.945
		c-1.805,2.842-2.21,133.812-0.429,138.453c1.063,2.773,8.904,3.046,74.388,2.59l73.198-0.509V718.431z M390.761,640.25
		c1.726-1.726,2.334-19.936,2.334-69.873c0-58.807-0.396-67.935-3.056-70.596c-2.659-2.658-11.66-3.056-69.168-3.056
		c-41.854,0-67.492,0.738-69.873,2.013c-3.612,1.933-3.762,4.793-3.762,71.633c0,38.291,0.583,70.203,1.296,70.916
		c0.713,0.713,32.481,1.297,70.595,1.297C370.435,642.584,389.033,641.978,390.761,640.25z M690.185,570.757
		c0.399-55.392-0.024-71.194-1.944-72.413c-2.834-1.799-137.693-2.214-142.321-0.438c-2.727,1.046-3.076,9.183-3.076,71.632
		c0,38.749,0.594,71.047,1.32,71.772c0.726,0.727,33.763,1.091,73.415,0.811l72.096-0.51L690.185,570.757z M988.962,639.508
		c0.649-1.692,1.181-33.135,1.181-69.873c0-58.132-0.396-67.193-3.056-69.854c-2.662-2.662-11.836-3.056-71.112-3.056
		c-43.194,0-69.431,0.735-71.818,2.013c-3.611,1.933-3.762,4.793-3.762,71.633c0,38.291,0.584,70.203,1.297,70.916
		s33.875,1.297,73.693,1.297C979.607,642.584,987.915,642.236,988.962,639.508z M1280.68,639.508
		c0.649-1.692,1.181-33.46,1.181-70.596c0-49.922-0.608-68.128-2.334-69.854c-1.723-1.723-19.499-2.333-67.908-2.333
		c-36.066,0-66.959,0.531-68.651,1.181c-2.727,1.046-3.076,9.183-3.076,71.632c0,38.749,0.584,71.036,1.297,71.749
		s32.125,1.297,69.804,1.297C1271.668,642.584,1279.634,642.232,1280.68,639.508z M244.83,423.285l0.51-70.522l-70.522,0.511
		l-70.523,0.51l-0.512,67.837c-0.368,48.806,0.114,68.591,1.717,70.523c1.833,2.209,14.345,2.595,70.524,2.175l68.295-0.511
		L244.83,423.285z M540.686,492.119c1.577-1.9,2.063-22.051,1.696-70.498l-0.512-67.837h-72.929h-72.93l-0.512,66.689
		c-0.336,43.764,0.189,67.998,1.527,70.498c1.966,3.675,4.517,3.81,71.744,3.81C525.377,494.78,538.893,494.28,540.686,492.119z
		 M837.988,423.286l0.51-70.522l-72.467,0.51l-72.468,0.51l-0.512,68.056c-0.282,37.432-0.086,69.166,0.435,70.522
		c0.745,1.942,16.127,2.357,72.469,1.956l71.522-0.51L837.988,423.286z M1135.789,492.119c1.577-1.9,2.062-22.051,1.696-70.498
		l-0.512-67.837h-73.901H989.17l-0.512,66.689c-0.336,43.764,0.189,67.998,1.527,70.498c1.967,3.676,4.523,3.81,72.717,3.81
		C1120.33,494.78,1133.994,494.281,1135.789,492.119z"/>
	<g id="g82306">
		<text transform="matrix(1 0 0 1 146.3516 1629.1699)" font-family="'Verdana'" font-size="100">a</text>
		<text transform="matrix(1 0 0 1 290.1157 1629.1699)" font-family="'Verdana'" font-size="100">b</text>
		<text transform="matrix(1 0 0 1 444.4517 1629.4629)" font-family="'Verdana'" font-size="100">c</text>
		<text transform="matrix(1 0 0 1 590.9751 1629.1699)" font-family="'Verdana'" font-size="100">d</text>
		<text transform="matrix(1 0 0 1 738.8652 1629.4141)" font-family="'Verdana'" font-size="100">e</text>
		<text transform="matrix(1 0 0 1 896.4971 1630.6836)" font-family="'Verdana'" font-size="100">f</text>
		<text transform="matrix(1 0 0 1 1036.624 1610.0293)" font-family="'Verdana'" font-size="100">g</text>
		<text transform="matrix(1 0 0 1 1182.6104 1630.6836)" font-family="'Verdana'" font-size="100">h</text>
	</g>
	<g id="g82324" transform="translate(-17.196301,-1303.3676)">
		<text transform="matrix(1 0 0 1 146.3516 1629.1704)" font-family="'Verdana'" font-size="100">a</text>
		<text transform="matrix(1 0 0 1 290.1157 1629.1704)" font-family="'Verdana'" font-size="100">b</text>
		<text transform="matrix(1 0 0 1 444.4517 1629.4634)" font-family="'Verdana'" font-size="100">c</text>
		<text transform="matrix(1 0 0 1 590.9751 1629.1704)" font-family="'Verdana'" font-size="100">d</text>
		<text transform="matrix(1 0 0 1 738.8652 1629.4146)" font-family="'Verdana'" font-size="100">e</text>
		<text transform="matrix(1 0 0 1 896.4971 1630.6841)" font-family="'Verdana'" font-size="100">f</text>
		<text transform="matrix(1 0 0 1 1036.624 1610.0298)" font-family="'Verdana'" font-size="100">g</text>
		<text transform="matrix(1 0 0 1 1182.6104 1630.6841)" font-family="'Verdana'" font-size="100">h</text>
	</g>
	<g id="g82408">
		<text transform="matrix(1 0 0 1 21.6919 456.9259)" font-family="'Verdana'" font-size="100">8</text>
		<text transform="matrix(1 0 0 1 21.0815 607.0841)" font-family="'Verdana'" font-size="100">7</text>
		<text transform="matrix(1 0 0 1 21.0571 757.1681)" font-family="'Verdana'" font-size="100">6</text>
		<text transform="matrix(1 0 0 1 20.6665 906.6427)" font-family="'Verdana'" font-size="100">5</text>
		<text transform="matrix(1 0 0 1 22.229 1057.5577)" font-family="'Verdana'" font-size="100">4</text>
		<text transform="matrix(1 0 0 1 21.3745 1207.715)" font-family="'Verdana'" font-size="100">3</text>
		<text transform="matrix(1 0 0 1 21.0083 1358.631)" font-family="'Verdana'" font-size="100">2</text>
		<text transform="matrix(1 0 0 1 20.2271 1508.1534)" font-family="'Verdana'" font-size="100">1</text>
	</g>
	<g id="g82426" transform="translate(1288.0035,-5.0017596)">
		<text transform="matrix(1 0 0 1 21.6918 456.9257)" font-family="'Verdana'" font-size="100">8</text>
		<text transform="matrix(1 0 0 1 21.0814 607.0839)" font-family="'Verdana'" font-size="100">7</text>
		<text transform="matrix(1 0 0 1 21.057 757.1678)" font-family="'Verdana'" font-size="100">6</text>
		<text transform="matrix(1 0 0 1 20.6664 906.6425)" font-family="'Verdana'" font-size="100">5</text>
		<text transform="matrix(1 0 0 1 22.2289 1057.5575)" font-family="'Verdana'" font-size="100">4</text>
		<text transform="matrix(1 0 0 1 21.3744 1207.7157)" font-family="'Verdana'" font-size="100">3</text>
		<text transform="matrix(1 0 0 1 21.0082 1358.6307)" font-family="'Verdana'" font-size="100">2</text>
		<text transform="matrix(1 0 0 1 20.2269 1508.1542)" font-family="'Verdana'" font-size="100">1</text>
	</g>
</g>
<path id="path3194" stroke="#FFFFFF" stroke-width="5" stroke-linecap="round" d="M161.485,137.991
	c-6.772,0-12.269,5.497-12.269,12.271c0,2.715,0.902,5.252,2.396,7.286c-5.987,3.441-10.064,9.857-10.064,17.255
	c0,6.239,2.89,11.776,7.38,15.434c-9.199,3.245-22.716,17.015-22.716,41.316h70.546c0-24.301-13.518-38.071-22.716-41.316
	c4.491-3.657,7.38-9.194,7.38-15.434c0-7.397-4.077-13.813-10.064-17.255c1.495-2.033,2.396-4.571,2.396-7.286
	C173.754,143.488,168.258,137.991,161.485,137.991z"/>
<path id="path2575" fill="#FFFFFF" stroke="#000000" stroke-width="5" stroke-linecap="round" d="M1226.118,1662.376
	c-6.772,0-12.269,5.497-12.269,12.271c0,2.715,0.901,5.252,2.396,7.285c-5.987,3.441-10.064,9.857-10.064,17.255
	c0,6.239,2.89,11.776,7.381,15.435c-9.199,3.244-22.717,17.015-22.717,41.315h70.546c0-24.301-13.518-38.071-22.717-41.315
	c4.491-3.658,7.381-9.195,7.381-15.435c0-7.397-4.077-13.813-10.064-17.255c1.494-2.033,2.396-4.57,2.396-7.285
	C1238.388,1667.873,1232.891,1662.376,1226.118,1662.376z"/>
<g id="g3010" transform="matrix(3.067229,0,0,3.067558,-402.16429,-1300.1812)">
	<path id="path2996" fill="#FFFFFF" stroke="#000000" stroke-width="1.63" stroke-linejoin="round" d="M270.786,1032.414
		c3.385-0.972,10.115,0.431,13.5-2c3.385,2.431,10.115,1.028,13.5,2c0,0,1.646,0.542,3,2c-0.677,0.972-1.646,0.986-3,0.5
		c-3.385-0.972-10.115,0.458-13.5-1c-3.385,1.458-10.115,0.028-13.5,1c-1.354,0.486-2.323,0.472-3-0.5
		C269.14,1032.47,270.786,1032.414,270.786,1032.414z"/>
	<path id="path2998" fill="#FFFFFF" stroke="#000000" stroke-width="1.63" stroke-linejoin="round" d="M276.786,1028.414
		c2.5,2.5,12.5,2.5,15,0c0.5-1.5,0-2,0-2c0-2.5-2.5-4-2.5-4c5.5-1.5,6-11.5-5-15.5c-11,4-10.5,14-5,15.5c0,0-2.5,1.5-2.5,4
		C276.786,1026.414,276.286,1026.914,276.786,1028.414z"/>
	<path id="path3000" fill="#FFFFFF" stroke="#000000" stroke-width="1.63" stroke-linejoin="round" d="M286.786,1004.414
		c0,1.381-1.119,2.5-2.5,2.5c-1.381,0-2.5-1.119-2.5-2.5c0-1.381,1.119-2.5,2.5-2.5
		C285.666,1001.914,286.786,1003.034,286.786,1004.414z"/>
	<path id="path3002" fill="none" stroke="#000000" stroke-width="1.63" d="M279.286,1022.414h10"/>
	<path id="path3004" fill="none" stroke="#000000" stroke-width="1.63" d="M276.786,1026.414h15"/>
	<path id="path3006" fill="none" stroke="#000000" stroke-width="1.63" stroke-linecap="round" d="M284.286,1011.914v5"/>
	<path id="path3008" fill="none" stroke="#000000" stroke-width="1.63" stroke-linecap="round" d="M281.786,1014.414h5"/>
</g>
<g id="g3218" transform="matrix(3.067229,0,0,3.067558,-734.72771,-1603.2559)">
	<path id="path3119" fill="#FFFFFF" stroke="#000000" stroke-width="1.63" stroke-linejoin="round" d="M280.786,1130.714h27v-3h-27
		V1130.714z"/>
	<path id="path3121" fill="#FFFFFF" stroke="#000000" stroke-width="1.63" stroke-linejoin="round" d="M283.786,1127.714v-4h21v4
		H283.786z"/>
	<path id="path3129" fill="#FFFFFF" stroke="#000000" stroke-width="1.63" stroke-linejoin="round" d="M282.786,1105.714v-5h4v2h5
		v-2h5v2h5v-2h4v5"/>
	<path id="path3127" fill="#FFFFFF" stroke="#000000" stroke-width="1.63" stroke-linecap="round" stroke-linejoin="round" d="
		M305.786,1105.714l-3,3h-17l-3-3"/>
	<path id="path3125" fill="#FFFFFF" stroke="#000000" stroke-width="1.63" d="M302.786,1108.714v12.5h-17v-12.5"/>
	<path id="path3123" fill="#FFFFFF" stroke="#000000" stroke-width="1.63" stroke-linecap="round" stroke-linejoin="round" d="
		M302.786,1121.215l1.5,2.5h-20l1.5-2.5"/>
	<path id="path5175" fill="none" stroke="#000000" stroke-width="1.63" stroke-linecap="round" d="M282.786,1105.714h23"/>
</g>
<g id="g3388" transform="matrix(3.067229,0,0,3.067558,50.67236,-1300.1812)">
	<path id="path3390" fill="#FFFFFF" stroke="#000000" stroke-width="1.63" stroke-linejoin="round" d="M270.786,1032.414
		c3.385-0.972,10.115,0.431,13.5-2c3.385,2.431,10.115,1.028,13.5,2c0,0,1.646,0.542,3,2c-0.677,0.972-1.646,0.986-3,0.5
		c-3.385-0.972-10.114,0.458-13.5-1c-3.385,1.458-10.115,0.028-13.5,1c-1.354,0.486-2.323,0.472-3-0.5
		C269.14,1032.47,270.786,1032.414,270.786,1032.414z"/>
	<path id="path3392" fill="#FFFFFF" stroke="#000000" stroke-width="1.63" stroke-linejoin="round" d="M276.786,1028.414
		c2.5,2.5,12.5,2.5,15,0c0.5-1.5,0-2,0-2c0-2.5-2.5-4-2.5-4c5.5-1.5,6-11.5-5-15.5c-11,4-10.5,14-5,15.5c0,0-2.5,1.5-2.5,4
		C276.786,1026.414,276.286,1026.914,276.786,1028.414z"/>
	<path id="path3394" fill="#FFFFFF" stroke="#000000" stroke-width="1.63" stroke-linejoin="round" d="M286.786,1004.414
		c0,1.381-1.119,2.5-2.5,2.5c-1.381,0-2.5-1.119-2.5-2.5c0-1.381,1.119-2.5,2.5-2.5
		C285.666,1001.914,286.786,1003.034,286.786,1004.414z"/>
	<path id="path3396" fill="none" stroke="#000000" stroke-width="1.63" d="M279.286,1022.414h10"/>
	<path id="path3398" fill="none" stroke="#000000" stroke-width="1.63" d="M276.786,1026.414h15"/>
	<path id="path3400" fill="none" stroke="#000000" stroke-width="1.63" stroke-linecap="round" d="M284.286,1011.914v5"/>
	<path id="path3402" fill="none" stroke="#000000" stroke-width="1.63" stroke-linecap="round" d="M281.786,1014.414h5"/>
</g>
<g id="g3416" transform="matrix(3.067229,0,0,3.067558,321.89123,-1603.2559)">
	<path id="path3418" fill="#FFFFFF" stroke="#000000" stroke-width="1.63" stroke-linejoin="round" d="M280.786,1130.714h27v-3h-27
		V1130.714z"/>
	<path id="path3420" fill="#FFFFFF" stroke="#000000" stroke-width="1.63" stroke-linejoin="round" d="M283.786,1127.714v-4h21v4
		H283.786z"/>
	<path id="path3422" fill="#FFFFFF" stroke="#000000" stroke-width="1.63" stroke-linejoin="round" d="M282.786,1105.714v-5h4v2h5
		v-2h5v2h5v-2h4v5"/>
	<path id="path3424" fill="#FFFFFF" stroke="#000000" stroke-width="1.63" stroke-linecap="round" stroke-linejoin="round" d="
		M305.786,1105.714l-3,3h-17l-3-3"/>
	<path id="path3426" fill="#FFFFFF" stroke="#000000" stroke-width="1.63" d="M302.786,1108.714v12.5h-17v-12.5"/>
	<path id="path3428" fill="#FFFFFF" stroke="#000000" stroke-width="1.63" stroke-linecap="round" stroke-linejoin="round" d="
		M302.786,1121.215l1.5,2.5h-20l1.5-2.5"/>
	<path id="path3430" fill="none" stroke="#000000" stroke-width="1.63" stroke-linecap="round" d="M282.786,1105.714h23"/>
</g>
<path id="path3432" fill="#FFFFFF" stroke="#000000" stroke-width="5" stroke-linecap="round" d="M1074.081,1662.376
	c-6.772,0-12.27,5.497-12.27,12.271c0,2.715,0.901,5.252,2.396,7.285c-5.987,3.441-10.064,9.857-10.064,17.255
	c0,6.239,2.89,11.776,7.381,15.435c-9.199,3.244-22.717,17.015-22.717,41.315h70.546c0-24.301-13.518-38.071-22.717-41.315
	c4.491-3.658,7.381-9.195,7.381-15.435c0-7.397-4.077-13.813-10.064-17.255c1.495-2.033,2.396-4.57,2.396-7.285
	C1086.35,1667.873,1080.854,1662.376,1074.081,1662.376z"/>
<path id="path3434" fill="#FFFFFF" stroke="#000000" stroke-width="5" stroke-linecap="round" d="M922.043,1662.376
	c-6.772,0-12.27,5.497-12.27,12.271c0,2.715,0.902,5.252,2.396,7.285c-5.987,3.441-10.064,9.857-10.064,17.255
	c0,6.239,2.89,11.776,7.381,15.435c-9.199,3.244-22.717,17.015-22.717,41.315h70.546c0-24.301-13.518-38.071-22.716-41.315
	c4.49-3.658,7.38-9.195,7.38-15.435c0-7.397-4.077-13.813-10.064-17.255c1.495-2.033,2.396-4.57,2.396-7.285
	C934.312,1667.873,928.815,1662.376,922.043,1662.376z"/>
<path id="path3436" fill="#FFFFFF" stroke="#000000" stroke-width="5" stroke-linecap="round" d="M770.005,1662.376
	c-6.772,0-12.269,5.497-12.269,12.271c0,2.715,0.901,5.252,2.396,7.285c-5.987,3.441-10.064,9.857-10.064,17.255
	c0,6.239,2.89,11.776,7.381,15.435c-9.199,3.244-22.717,17.015-22.717,41.315h70.547c0-24.301-13.518-38.071-22.717-41.315
	c4.491-3.658,7.38-9.195,7.38-15.435c0-7.397-4.077-13.813-10.064-17.255c1.495-2.033,2.396-4.57,2.396-7.285
	C782.273,1667.873,776.777,1662.376,770.005,1662.376z"/>
<path id="path3438" fill="#FFFFFF" stroke="#000000" stroke-width="5" stroke-linecap="round" d="M617.967,1662.376
	c-6.772,0-12.269,5.497-12.269,12.271c0,2.715,0.901,5.252,2.396,7.285c-5.986,3.441-10.063,9.857-10.063,17.255
	c0,6.239,2.889,11.776,7.38,15.435c-9.199,3.244-22.717,17.015-22.717,41.315h70.547c0-24.301-13.518-38.071-22.717-41.315
	c4.491-3.658,7.381-9.195,7.381-15.435c0-7.397-4.078-13.813-10.064-17.255c1.494-2.033,2.396-4.57,2.396-7.285
	C630.235,1667.873,624.739,1662.376,617.967,1662.376z"/>
<path id="path3440" fill="#FFFFFF" stroke="#000000" stroke-width="5" stroke-linecap="round" d="M465.929,1662.376
	c-6.772,0-12.269,5.497-12.269,12.271c0,2.715,0.901,5.252,2.396,7.285c-5.987,3.441-10.064,9.857-10.064,17.255
	c0,6.239,2.89,11.776,7.38,15.435c-9.198,3.244-22.716,17.015-22.716,41.315h70.546c0-24.301-13.518-38.071-22.717-41.315
	c4.491-3.658,7.381-9.195,7.381-15.435c0-7.397-4.077-13.813-10.064-17.255c1.494-2.033,2.396-4.57,2.396-7.285
	C478.198,1667.873,472.701,1662.376,465.929,1662.376z"/>
<path id="path3442" fill="#FFFFFF" stroke="#000000" stroke-width="5" stroke-linecap="round" d="M313.891,1662.376
	c-6.772,0-12.269,5.497-12.269,12.271c0,2.715,0.902,5.252,2.396,7.285c-5.987,3.441-10.064,9.857-10.064,17.255
	c0,6.239,2.889,11.776,7.38,15.435c-9.199,3.244-22.717,17.015-22.717,41.315h70.546c0-24.301-13.518-38.071-22.717-41.315
	c4.491-3.658,7.381-9.195,7.381-15.435c0-7.397-4.077-13.813-10.064-17.255c1.494-2.033,2.396-4.57,2.396-7.285
	C326.16,1667.873,320.663,1662.376,313.891,1662.376z"/>
<path id="path3444" fill="#FFFFFF" stroke="#000000" stroke-width="5" stroke-linecap="round" d="M161.853,1662.376
	c-6.772,0-12.269,5.497-12.269,12.271c0,2.715,0.902,5.252,2.396,7.285c-5.987,3.441-10.064,9.857-10.064,17.255
	c0,6.239,2.89,11.776,7.38,15.435c-9.199,3.244-22.716,17.015-22.716,41.315h70.546c0-24.301-13.518-38.071-22.716-41.315
	c4.491-3.658,7.38-9.195,7.38-15.435c0-7.397-4.077-13.813-10.064-17.255c1.495-2.033,2.396-4.57,2.396-7.285
	C174.122,1667.873,168.625,1662.376,161.853,1662.376z"/>
<path id="path17042" stroke="#FFFFFF" stroke-width="5" stroke-linecap="round" d="M314.046,137.991
	c-6.772,0-12.269,5.497-12.269,12.271c0,2.715,0.902,5.252,2.396,7.286c-5.987,3.441-10.064,9.857-10.064,17.255
	c0,6.239,2.889,11.776,7.38,15.434c-9.199,3.245-22.717,17.015-22.717,41.316h70.546c0-24.301-13.518-38.071-22.717-41.316
	c4.491-3.657,7.381-9.194,7.381-15.434c0-7.397-4.077-13.813-10.064-17.255c1.494-2.033,2.396-4.571,2.396-7.286
	C326.315,143.488,320.818,137.991,314.046,137.991z"/>
<path id="path17044" stroke="#FFFFFF" stroke-width="5" stroke-linecap="round" d="M466.607,137.991
	c-6.772,0-12.27,5.497-12.27,12.271c0,2.715,0.902,5.252,2.396,7.286c-5.987,3.441-10.064,9.857-10.064,17.255
	c0,6.239,2.89,11.776,7.381,15.434c-9.199,3.245-22.717,17.015-22.717,41.316h70.546c0-24.301-13.518-38.071-22.716-41.316
	c4.49-3.657,7.38-9.194,7.38-15.434c0-7.397-4.077-13.813-10.064-17.255c1.495-2.033,2.396-4.571,2.396-7.286
	C478.876,143.488,473.38,137.991,466.607,137.991z"/>
<path id="path17046" stroke="#FFFFFF" stroke-width="5" stroke-linecap="round" d="M619.168,137.991
	c-6.772,0-12.269,5.497-12.269,12.271c0,2.715,0.901,5.252,2.396,7.286c-5.986,3.441-10.063,9.857-10.063,17.255
	c0,6.239,2.889,11.776,7.38,15.434c-9.199,3.245-22.717,17.015-22.717,41.316h70.547c0-24.301-13.518-38.071-22.717-41.316
	c4.491-3.657,7.381-9.194,7.381-15.434c0-7.397-4.078-13.813-10.064-17.255c1.494-2.033,2.396-4.571,2.396-7.286
	C631.437,143.488,625.94,137.991,619.168,137.991z"/>
<path id="path17048" stroke="#FFFFFF" stroke-width="5" stroke-linecap="round" d="M771.729,137.991
	c-6.772,0-12.269,5.497-12.269,12.271c0,2.715,0.901,5.252,2.396,7.286c-5.987,3.441-10.064,9.857-10.064,17.255
	c0,6.239,2.89,11.776,7.381,15.434c-9.199,3.245-22.717,17.015-22.717,41.316h70.546c0-24.301-13.518-38.071-22.717-41.316
	c4.491-3.657,7.381-9.194,7.381-15.434c0-7.397-4.077-13.813-10.064-17.255c1.494-2.033,2.396-4.571,2.396-7.286
	C783.998,143.488,778.501,137.991,771.729,137.991z"/>
<path id="path17050" stroke="#FFFFFF" stroke-width="5" stroke-linecap="round" d="M924.29,137.991
	c-6.772,0-12.27,5.497-12.27,12.271c0,2.715,0.902,5.252,2.396,7.286c-5.987,3.441-10.064,9.857-10.064,17.255
	c0,6.239,2.89,11.776,7.381,15.434c-9.199,3.245-22.717,17.015-22.717,41.316h70.546c0-24.301-13.518-38.071-22.716-41.316
	c4.49-3.657,7.38-9.194,7.38-15.434c0-7.397-4.077-13.813-10.064-17.255c1.495-2.033,2.396-4.571,2.396-7.286
	C936.559,143.488,931.063,137.991,924.29,137.991z"/>
<path id="path17052" stroke="#FFFFFF" stroke-width="5" stroke-linecap="round" d="M1076.851,137.991
	c-6.772,0-12.269,5.497-12.269,12.271c0,2.715,0.901,5.252,2.396,7.286c-5.987,3.441-10.064,9.857-10.064,17.255
	c0,6.239,2.889,11.776,7.38,15.434c-9.199,3.245-22.716,17.015-22.716,41.316h70.546c0-24.301-13.518-38.071-22.717-41.316
	c4.491-3.657,7.381-9.194,7.381-15.434c0-7.397-4.077-13.813-10.064-17.255c1.494-2.033,2.396-4.571,2.396-7.286
	C1089.119,143.488,1083.623,137.991,1076.851,137.991z"/>
<path id="path17054" stroke="#FFFFFF" stroke-width="5" stroke-linecap="round" d="M1229.411,137.991
	c-6.772,0-12.269,5.497-12.269,12.271c0,2.715,0.901,5.252,2.396,7.286c-5.987,3.441-10.064,9.857-10.064,17.255
	c0,6.239,2.89,11.776,7.381,15.434c-9.199,3.245-22.717,17.015-22.717,41.316h70.546c0-24.301-13.518-38.071-22.717-41.316
	c4.491-3.657,7.381-9.194,7.381-15.434c0-7.397-4.077-13.813-10.064-17.255c1.494-2.033,2.396-4.571,2.396-7.286
	C1241.681,143.488,1236.184,137.991,1229.411,137.991z"/>
<g id="g46309" transform="translate(350.09398,-1317.1382)">
	<path id="path46311" fill="none" stroke="#FFFFFF" stroke-width="10" stroke-linejoin="round" d="M-227.128,1436.207h85.549v-9.705
		h-85.549v9.096V1436.207z"/>
	<path id="path46313" fill="none" stroke="#FFFFFF" stroke-width="5" stroke-linejoin="round" d="M-217.249,1415.526l5.106-8.087
		h54.831l5.106,8.087H-217.249z"/>
	<path id="path46315" fill="none" stroke="#FFFFFF" stroke-width="10" stroke-linejoin="round" d="M-217.273,1428.466v-12.94h65.519
		v12.94H-217.273z"/>
	<path id="path46317" fill="none" stroke="#FFFFFF" stroke-width="10" d="M-211.429,1407.438v-42.055h53.403v42.055H-211.429z"/>
	<path id="path46319" fill="none" stroke="#FFFFFF" stroke-width="10" stroke-linejoin="round" d="M-210.536,1367.258l-10.212-8.087
		l72.719-0.179l-10.211,8.087L-210.536,1367.258z"/>
	<path id="path46321" fill="none" stroke="#FFFFFF" stroke-width="10" stroke-linejoin="round" d="M-220.748,1357.296v-14.747
		h13.901v6.47h14.02v-6.47h18.163v6.47h12.091v-6.47h14.402v14.747H-220.748z"/>
	<path id="path46323" stroke="#000000" stroke-width="1.5" stroke-linejoin="round" d="M-225.792,1436.133h82.815v-9.203h-82.815
		V1436.133z"/>
	<path id="path46325" stroke="#000000" stroke-width="1.5" stroke-linejoin="round" d="M-215.057,1414.66l4.601-7.669h52.143
		l4.601,7.669H-215.057z"/>
	<path id="path46327" stroke="#000000" stroke-width="1.5" stroke-linejoin="round" d="M-216.591,1426.93v-12.271h64.412v12.271
		H-216.591z"/>
	<path id="path46329" stroke="#000000" stroke-width="1.5" d="M-210.456,1406.991v-39.878h52.143v39.878H-210.456z"/>
	<path id="path46331" stroke="#000000" stroke-width="1.5" stroke-linejoin="round" d="M-210.456,1367.113l-9.202-7.669h70.546
		l-9.202,7.669H-210.456z"/>
	<path id="path46333" stroke="#000000" stroke-width="1.5" stroke-linejoin="round" d="M-219.658,1359.444v-15.338h12.269v6.135
		h15.336v-6.135h15.336v6.135h15.336v-6.135h12.269v15.338H-219.658z"/>
	<path id="path46335" fill="none" stroke="#FFFFFF" stroke-width="4" stroke-linecap="round" d="M-216.591,1423.968h64.412l0,0"/>
	<path id="path46337" fill="none" stroke="#FFFFFF" stroke-width="4" stroke-linecap="round" d="M-213.523,1412.055h58.277"/>
	<path id="path46339" fill="none" stroke="#FFFFFF" stroke-linecap="round" d="M-210.456,1406.991h52.143"/>
	<path id="path46341" fill="none" stroke="#FFFFFF" stroke-linecap="round" d="M-210.456,1367.113h52.143"/>
	<path id="path46343" fill="none" stroke="#FFFFFF" stroke-width="4" stroke-linecap="round" d="M-219.658,1359.444h70.546"/>
</g>
<g id="g46345" transform="translate(1405.7038,-1317.1382)">
	<path id="path46347" fill="none" stroke="#FFFFFF" stroke-width="10" stroke-linejoin="round" d="M-227.128,1436.207h85.55v-9.705
		h-85.55v9.096V1436.207z"/>
	<path id="path46349" fill="none" stroke="#FFFFFF" stroke-width="5" stroke-linejoin="round" d="M-217.25,1415.526l5.106-8.087
		h54.831l5.106,8.087H-217.25z"/>
	<path id="path46351" fill="none" stroke="#FFFFFF" stroke-width="10" stroke-linejoin="round" d="M-217.273,1428.466v-12.94h65.519
		v12.94H-217.273z"/>
	<path id="path46353" fill="none" stroke="#FFFFFF" stroke-width="10" d="M-211.429,1407.438v-42.055h53.403v42.055H-211.429z"/>
	<path id="path46355" fill="none" stroke="#FFFFFF" stroke-width="10" stroke-linejoin="round" d="M-210.536,1367.258l-10.212-8.087
		l72.719-0.179l-10.212,8.087L-210.536,1367.258z"/>
	<path id="path46357" fill="none" stroke="#FFFFFF" stroke-width="10" stroke-linejoin="round" d="M-220.748,1357.296v-14.747
		h13.901v6.47h14.02v-6.47h18.162v6.47h12.092v-6.47h14.401v14.747H-220.748z"/>
	<path id="path46359" stroke="#000000" stroke-width="1.5" stroke-linejoin="round" d="M-225.792,1436.133h82.814v-9.203h-82.814
		V1436.133z"/>
	<path id="path46361" stroke="#000000" stroke-width="1.5" stroke-linejoin="round" d="M-215.056,1414.66l4.601-7.669h52.143
		l4.602,7.669H-215.056z"/>
	<path id="path46363" stroke="#000000" stroke-width="1.5" stroke-linejoin="round" d="M-216.591,1426.93v-12.271h64.412v12.271
		H-216.591z"/>
	<path id="path46365" stroke="#000000" stroke-width="1.5" d="M-210.456,1406.991v-39.878h52.143v39.878H-210.456z"/>
	<path id="path46367" stroke="#000000" stroke-width="1.5" stroke-linejoin="round" d="M-210.456,1367.113l-9.202-7.669h70.547
		l-9.202,7.669H-210.456z"/>
	<path id="path46369" stroke="#000000" stroke-width="1.5" stroke-linejoin="round" d="M-219.658,1359.444v-15.338h12.27v6.135
		h15.336v-6.135h15.336v6.135h15.336v-6.135h12.27v15.338H-219.658z"/>
	<path id="path46371" fill="none" stroke="#FFFFFF" stroke-width="4" stroke-linecap="round" d="M-216.591,1423.968h64.412l0,0"/>
	<path id="path46373" fill="none" stroke="#FFFFFF" stroke-width="4" stroke-linecap="round" d="M-213.523,1412.055h58.277"/>
	<path id="path46375" fill="none" stroke="#FFFFFF" stroke-linecap="round" d="M-210.456,1406.991h52.143"/>
	<path id="path46377" fill="none" stroke="#FFFFFF" stroke-linecap="round" d="M-210.456,1367.113h52.143"/>
	<path id="path46379" fill="none" stroke="#FFFFFF" stroke-width="4" stroke-linecap="round" d="M-219.658,1359.444h70.547"/>
</g>
<g id="g60673" transform="translate(-78.13044,-55.73575)">
	<path id="path60675" d="M395.847,1836.29c37.531,4.162,54.642,26.149,53.008,94.792h-75.886
		c-0.893-36.919,30.719-21.425,24.182-68.821"/>
	<path id="path60677" d="M405.986,1863.175c1.371,9.711-16.586,24.579-25.311,30.021c-10.697,6.671-10.052,14.485-17.828,13.342
		c-4.119-5.333,0.434-5.903-3.565-3.335c-3.566,0-14.274,3.335-14.263-13.343c0-6.671,18.894-40.026,18.894-40.026
		s5.295-6.345,5.703-11.674c-2.589-3.317-1.069-6.672-1.069-10.007c3.566-3.336,12.661,8.339,12.661,8.339h4.274
		c0,0,3.681-6.645,9.807-10.007c3.565,0,3.565,10.007,3.565,10.007"/>
	<path id="path60679" fill="#F2F2F2" d="M354.993,1886.955c0,0.902-0.731,1.634-1.634,1.634c-0.903,0-1.634-0.731-1.634-1.634
		c0-0.903,0.731-1.635,1.634-1.635C354.262,1885.321,354.993,1886.052,354.993,1886.955z"/>
	<path id="path60681" fill="#F2F2F2" d="M372.75,1855.085c-1.354,2.346-3.084,3.881-3.866,3.43
		c-0.782-0.452-0.318-2.719,1.036-5.063c1.354-2.346,3.084-3.881,3.866-3.429C374.568,1850.474,374.104,1852.741,372.75,1855.085z"
		/>
	<path id="path60683" d="M404.181,1837.598l-0.98,3.596l1.798,0.327c10.137,1.56,20.667,7.303,28.025,21.226
		s9.551,35.835,7.926,68.336l-0.163,0.026h5.72v-0.026c1.644-32.873-2.865-55.088-10.622-69.766
		c-7.758-14.678-18.92-21.683-30.027-23.392L404.181,1837.598z"/>
	<path id="path60685" fill="#FFFFFF" stroke="#000000" stroke-linecap="round" d="M396.953,1839.188
		c32.205,3.067,50.608,24.54,49.075,88.959h-70.546c0-27.608,30.672-19.939,24.538-64.419"/>
	<path id="path60687" fill="#FFFFFF" stroke="#000000" stroke-linecap="round" stroke-linejoin="round" d="M403.086,1863.728
		c1.18,8.931-17.032,22.604-24.538,27.608c-9.202,6.135-8.647,13.322-15.336,12.271c-3.195-2.896,4.335-9.318,0-9.203
		c-3.067,0,0.575,3.778-3.067,6.135c-3.067,0-12.279,3.068-12.269-12.27c0-6.136,18.403-36.811,18.403-36.811
		s5.785-5.835,6.135-10.737c-2.227-3.05-1.534-6.135-1.534-9.202c3.067-3.067,9.202,7.669,9.202,7.669h6.135
		c0,0,2.397-6.11,7.668-9.203c3.067,0,3.067,9.203,3.067,9.203"/>
	<path id="path60689" stroke="#000000" stroke-width="0.326" stroke-linecap="round" stroke-linejoin="round" d="M358.612,1886.735
		c0,0.847-0.687,1.534-1.534,1.534s-1.534-0.688-1.534-1.534s0.687-1.534,1.534-1.534S358.612,1885.888,358.612,1886.735z"/>
	<path id="path60691" stroke="#000000" stroke-width="0.326" stroke-linecap="round" stroke-linejoin="round" d="M375.276,1856.827
		c-1.271,2.2-2.895,3.642-3.628,3.218s-0.298-2.551,0.972-4.752s2.895-3.642,3.629-3.218
		C376.982,1852.497,376.546,1854.625,375.276,1856.827z"/>
	<path id="path60693" d="M403.845,1840.414l-0.92,3.374l1.687,0.308c9.513,1.464,19.396,6.854,26.302,19.92
		c6.905,13.066,9.892,32.665,8.366,63.167l-0.153,1.533h5.368v-1.533c1.542-30.851-3.617-50.734-10.897-64.51
		c-7.28-13.774-17.756-20.348-28.181-21.952L403.845,1840.414z"/>
</g>
<g id="g60695" transform="translate(676.59734,-55.73575)">
	<path id="path60697" d="M395.847,1836.29c37.532,4.162,54.642,26.149,53.008,94.792h-75.886
		c-0.893-36.919,30.719-21.425,24.183-68.821"/>
	<path id="path60699" d="M405.986,1863.175c1.371,9.711-16.585,24.579-25.311,30.021c-10.697,6.671-10.053,14.485-17.828,13.342
		c-4.119-5.333,0.434-5.903-3.565-3.335c-3.566,0-14.274,3.335-14.263-13.343c0-6.671,18.894-40.026,18.894-40.026
		s5.296-6.345,5.703-11.674c-2.589-3.317-1.069-6.672-1.069-10.007c3.566-3.336,12.661,8.339,12.661,8.339h4.274
		c0,0,3.681-6.645,9.808-10.007c3.565,0,3.565,10.007,3.565,10.007"/>
	<path id="path60701" fill="#F2F2F2" d="M354.993,1886.955c0,0.902-0.731,1.634-1.634,1.634c-0.903,0-1.635-0.731-1.635-1.634
		c0-0.903,0.731-1.635,1.635-1.635C354.262,1885.321,354.993,1886.052,354.993,1886.955z"/>
	<path id="path60703" fill="#F2F2F2" d="M372.75,1855.085c-1.354,2.346-3.085,3.881-3.866,3.43
		c-0.782-0.452-0.318-2.719,1.036-5.063c1.354-2.346,3.084-3.881,3.866-3.429C374.568,1850.474,374.104,1852.741,372.75,1855.085z"
		/>
	<path id="path60705" d="M404.182,1837.598l-0.98,3.596l1.797,0.327c10.137,1.56,20.668,7.303,28.026,21.226
		s9.55,35.835,7.925,68.336l-0.163,0.026h5.72v-0.026c1.644-32.873-2.864-55.088-10.622-69.766
		c-7.757-14.678-18.92-21.683-30.027-23.392L404.182,1837.598z"/>
	<path id="path60707" fill="#FFFFFF" stroke="#000000" stroke-linecap="round" d="M396.952,1839.188
		c32.206,3.067,50.609,24.54,49.075,88.959h-70.546c0-27.608,30.672-19.939,24.538-64.419"/>
	<path id="path60709" fill="#FFFFFF" stroke="#000000" stroke-linecap="round" stroke-linejoin="round" d="M403.086,1863.728
		c1.18,8.931-17.031,22.604-24.537,27.608c-9.202,6.135-8.647,13.322-15.336,12.271c-3.195-2.896,4.335-9.318,0-9.203
		c-3.067,0,0.574,3.778-3.067,6.135c-3.067,0-12.279,3.068-12.27-12.27c0-6.136,18.403-36.811,18.403-36.811
		s5.785-5.835,6.135-10.737c-2.227-3.05-1.533-6.135-1.533-9.202c3.066-3.067,9.201,7.669,9.201,7.669h6.135
		c0,0,2.397-6.11,7.668-9.203c3.067,0,3.067,9.203,3.067,9.203"/>
	<path id="path60711" stroke="#000000" stroke-width="0.326" stroke-linecap="round" stroke-linejoin="round" d="M358.612,1886.735
		c0,0.847-0.687,1.534-1.533,1.534c-0.848,0-1.534-0.688-1.534-1.534s0.687-1.534,1.534-1.534
		C357.925,1885.201,358.612,1885.888,358.612,1886.735z"/>
	<path id="path60713" stroke="#000000" stroke-width="0.326" stroke-linecap="round" stroke-linejoin="round" d="M375.276,1856.827
		c-1.271,2.2-2.895,3.642-3.628,3.218s-0.299-2.551,0.972-4.752s2.896-3.642,3.629-3.218
		C376.982,1852.497,376.546,1854.625,375.276,1856.827z"/>
	<path id="path60715" d="M403.845,1840.414l-0.92,3.374l1.687,0.308c9.514,1.464,19.396,6.854,26.302,19.92
		s9.892,32.665,8.366,63.167l-0.153,1.533h5.368v-1.533c1.542-30.851-3.617-50.734-10.897-64.51
		c-7.28-13.774-17.756-20.348-28.18-21.952L403.845,1840.414z"/>
</g>
<g id="g49858" transform="translate(837.69243,-1808.2441)">
	<path id="path48825" fill="#FFFFFF" d="M231.715,1837.494c37.531,4.162,54.642,26.149,53.007,94.792h-75.886
		c-0.893-36.918,30.72-21.425,24.183-68.821"/>
	<path id="path48827" fill="#FFFFFF" d="M241.852,1864.379c1.371,9.71-16.585,24.578-25.311,30.02
		c-10.696,6.671-10.052,14.486-17.828,13.342c-4.119-5.333,0.435-5.904-3.565-3.335c-3.565,0-14.273,3.335-14.263-13.342
		c0-6.671,18.894-40.026,18.894-40.026s5.296-6.345,5.703-11.674c-2.589-3.317-1.068-6.671-1.068-10.007
		c3.565-3.335,12.661,8.339,12.661,8.339h4.274c0,0,3.68-6.644,9.807-10.007c3.565,0,3.565,10.007,3.565,10.007"/>
	<path id="path48829" fill="#F2F2F2" d="M190.86,1888.158c0,0.902-0.731,1.634-1.634,1.634s-1.634-0.732-1.634-1.634
		c0-0.903,0.731-1.635,1.634-1.635S190.86,1887.255,190.86,1888.158z"/>
	<path id="path48831" fill="#F2F2F2" d="M208.617,1856.289c-1.354,2.345-3.085,3.88-3.866,3.429
		c-0.781-0.452-0.317-2.719,1.036-5.063c1.354-2.345,3.085-3.88,3.866-3.429C210.435,1851.677,209.972,1853.943,208.617,1856.289z"
		/>
	<path id="path48833" fill="#FFFFFF" d="M240.049,1838.801l-0.98,3.596l1.798,0.327c10.136,1.56,20.667,7.303,28.025,21.226
		c7.358,13.923,9.551,35.835,7.926,68.336l-0.164,0.027h5.72v-0.027c1.644-32.873-2.864-55.088-10.622-69.766
		c-7.757-14.678-18.92-21.683-30.027-23.392L240.049,1838.801z"/>
	<path id="path48837" stroke="#000000" stroke-linecap="round" d="M232.819,1840.391c32.206,3.067,50.609,24.541,49.076,88.959
		h-70.547c0-27.608,30.673-19.939,24.538-64.418"/>
	<path id="path48839" stroke="#000000" stroke-linecap="round" stroke-linejoin="round" d="M238.954,1864.931
		c1.179,8.93-17.032,22.604-24.538,27.608c-9.202,6.135-8.647,13.322-15.336,12.271c-3.195-2.896,4.335-9.318,0-9.203
		c-3.067,0,0.574,3.779-3.067,6.135c-3.067,0-12.278,3.068-12.269-12.27c0-6.135,18.403-36.811,18.403-36.811
		s5.784-5.835,6.134-10.737c-2.227-3.05-1.533-6.135-1.533-9.203c3.067-3.067,9.202,7.669,9.202,7.669h6.134
		c0,0,2.398-6.11,7.668-9.203c3.067,0,3.067,9.203,3.067,9.203"/>
	<path id="path48841" fill="#FFFFFF" stroke="#FFFFFF" stroke-width="0.326" stroke-linecap="round" stroke-linejoin="round" d="
		M194.479,1887.938c0,0.847-0.688,1.534-1.534,1.534s-1.533-0.687-1.533-1.534s0.687-1.534,1.533-1.534
		S194.479,1887.091,194.479,1887.938z"/>
	<path id="path48843" fill="#FFFFFF" stroke="#FFFFFF" stroke-width="0.326" stroke-linecap="round" stroke-linejoin="round" d="
		M211.143,1858.029c-1.271,2.201-2.896,3.642-3.629,3.218c-0.733-0.423-0.298-2.551,0.973-4.752
		c1.271-2.201,2.895-3.641,3.628-3.218C212.85,1853.701,212.414,1855.828,211.143,1858.029z"/>
	<path id="path48845" fill="#FFFFFF" d="M239.712,1841.618l-0.92,3.375l1.688,0.307c9.513,1.464,19.396,6.854,26.301,19.92
		c6.906,13.066,9.892,32.666,8.367,63.167l-0.153,1.534h5.367v-1.534c1.542-30.85-3.616-50.734-10.897-64.509
		c-7.279-13.774-17.756-20.348-28.18-21.952L239.712,1841.618z"/>
</g>
<g id="g60728" transform="translate(83.685424,-1808.2441)">
	<path id="path60730" fill="#FFFFFF" d="M231.715,1837.494c37.531,4.162,54.641,26.149,53.007,94.792h-75.886
		c-0.893-36.918,30.719-21.425,24.183-68.821"/>
	<path id="path60732" fill="#FFFFFF" d="M241.853,1864.379c1.371,9.71-16.585,24.578-25.311,30.02
		c-10.697,6.671-10.052,14.486-17.828,13.342c-4.119-5.333,0.434-5.904-3.565-3.335c-3.566,0-14.274,3.335-14.263-13.342
		c0-6.671,18.894-40.026,18.894-40.026s5.296-6.345,5.703-11.674c-2.589-3.317-1.069-6.671-1.069-10.007
		c3.566-3.335,12.661,8.339,12.661,8.339h4.274c0,0,3.68-6.644,9.807-10.007c3.565,0,3.565,10.007,3.565,10.007"/>
	<path id="path60734" fill="#F2F2F2" d="M190.86,1888.158c0,0.902-0.731,1.634-1.634,1.634c-0.903,0-1.634-0.732-1.634-1.634
		c0-0.903,0.731-1.635,1.634-1.635C190.129,1886.523,190.86,1887.255,190.86,1888.158z"/>
	<path id="path60736" fill="#F2F2F2" d="M208.617,1856.289c-1.354,2.345-3.085,3.88-3.866,3.429
		c-0.782-0.452-0.318-2.719,1.036-5.063c1.354-2.345,3.085-3.88,3.867-3.429C210.435,1851.677,209.971,1853.943,208.617,1856.289z"
		/>
	<path id="path60738" fill="#FFFFFF" d="M240.049,1838.801l-0.98,3.596l1.797,0.327c10.137,1.56,20.668,7.303,28.026,21.226
		c7.358,13.923,9.551,35.835,7.926,68.336l-0.164,0.027h5.72v-0.027c1.644-32.873-2.864-55.088-10.622-69.766
		c-7.757-14.678-18.92-21.683-30.027-23.392L240.049,1838.801z"/>
	<path id="path60740" stroke="#000000" stroke-linecap="round" d="M232.819,1840.391c32.206,3.067,50.609,24.541,49.075,88.959
		h-70.546c0-27.608,30.672-19.939,24.538-64.418"/>
	<path id="path60742" stroke="#000000" stroke-linecap="round" stroke-linejoin="round" d="M238.954,1864.931
		c1.179,8.93-17.033,22.604-24.538,27.608c-9.202,6.135-8.647,13.322-15.336,12.271c-3.195-2.896,4.335-9.318,0-9.203
		c-3.067,0,0.575,3.779-3.067,6.135c-3.067,0-12.279,3.068-12.269-12.27c0-6.135,18.403-36.811,18.403-36.811
		s5.784-5.835,6.134-10.737c-2.227-3.05-1.533-6.135-1.533-9.203c3.067-3.067,9.202,7.669,9.202,7.669h6.134
		c0,0,2.397-6.11,7.668-9.203c3.067,0,3.067,9.203,3.067,9.203"/>
	<path id="path60744" fill="#FFFFFF" stroke="#FFFFFF" stroke-width="0.326" stroke-linecap="round" stroke-linejoin="round" d="
		M194.479,1887.938c0,0.847-0.687,1.534-1.534,1.534s-1.534-0.687-1.534-1.534s0.687-1.534,1.534-1.534
		S194.479,1887.091,194.479,1887.938z"/>
	<path id="path60746" fill="#FFFFFF" stroke="#FFFFFF" stroke-width="0.326" stroke-linecap="round" stroke-linejoin="round" d="
		M211.143,1858.029c-1.271,2.201-2.895,3.642-3.628,3.218c-0.733-0.423-0.298-2.551,0.972-4.752
		c1.271-2.201,2.895-3.641,3.628-3.218C212.849,1853.701,212.414,1855.828,211.143,1858.029z"/>
	<path id="path60748" fill="#FFFFFF" d="M239.712,1841.618l-0.92,3.375l1.687,0.307c9.514,1.464,19.396,6.854,26.302,19.92
		c6.906,13.066,9.892,32.666,8.367,63.167l-0.153,1.534h5.367v-1.534c1.542-30.85-3.617-50.734-10.897-64.509
		c-7.279-13.774-17.756-20.348-28.18-21.952L239.712,1841.618z"/>
</g>
<g id="g63721" transform="translate(569.96919,-50.793478)">
	<g id="g60798" transform="matrix(3.4156897,0,0,3.3289941,-1005.3432,-2662.945)">
		<path id="path60800" fill="#FFFFFF" stroke="#FFFFFF" stroke-width="0.4448" stroke-linejoin="round" d="M250.786,848.362
			c2.471-1.234,10.115,0.127,13.5-2.303c3.385,2.431,11.125,0.963,13.352,2.303c2.202,1.325,1.942,0.903,2.556,2.589
			c-0.677,0.972-1.054,1.593-2.408,1.107c-3.385-0.972-10.115,0.458-13.5-1c-3.385,1.459-10.115,0.028-13.5,1
			c-1.354,0.486-1.731-0.211-2.408-1.183C249.731,848.93,248.435,849.535,250.786,848.362z"/>
		<path id="path60802" fill="#FFFFFF" stroke="#FFFFFF" stroke-width="0.4448" stroke-linejoin="round" d="M256.786,845.557
			c2.5,2.5,12.5,2.5,15,0c0.5-1.5,0-2,0-2c0-2.5-2.063-4-2.063-4c5.5-1.5,5.563-11.5-5.438-15.5c-11,4-10.722,14.152-5.222,15.652
			c0,0-2.352,0.969-2.352,3.469C256.712,843.178,256.286,844.057,256.786,845.557z"/>
		<path id="path60804" fill="#FFFFFF" stroke="#FFFFFF" stroke-width="0.3651" stroke-linejoin="round" d="M267.311,822.841
			c0,1.636-1.402,2.962-3.132,2.962c-1.73,0-3.132-1.326-3.132-2.962c0-1.636,1.402-2.962,3.132-2.962
			C265.908,819.879,267.311,821.206,267.311,822.841z"/>
		<path id="path60806" fill="#FF8BFF" stroke="#FF78FF" stroke-width="0.4448" stroke-linecap="round" d="M259.286,839.557h10"/>
		<path id="path60810" fill="#FF8BFF" stroke="#FF78FF" stroke-width="0.4448" stroke-linecap="round" d="M264.286,829.057v5"/>
		<path id="path60812" fill="#FF8BFF" stroke="#FF78FF" stroke-width="0.4448" stroke-linecap="round" d="M261.786,831.557h5"/>
	</g>
	<g id="g60782" transform="matrix(3.067229,0,0,3.067558,-913.48194,-2443.602)">
		<path id="path60784" stroke="#000000" stroke-width="0.489" stroke-linejoin="round" d="M250.786,849.557
			c3.385-0.972,10.115,0.431,13.5-2c3.385,2.431,10.115,1.028,13.5,2c0,0,1.646,0.542,3,2c-0.677,0.972-1.646,0.986-3,0.5
			c-3.385-0.972-10.115,0.459-13.5-1c-3.385,1.458-10.115,0.028-13.5,1c-1.354,0.486-2.323,0.472-3-0.5
			C249.14,849.613,250.786,849.557,250.786,849.557z"/>
		<path id="path60786" stroke="#000000" stroke-width="0.489" stroke-linejoin="round" d="M256.786,845.557c2.5,2.5,12.5,2.5,15,0
			c0.5-1.5,0-2,0-2c0-2.5-2.5-4-2.5-4c5.5-1.5,6-11.5-5-15.5c-11,4-10.5,14-5,15.5c0,0-2.5,1.5-2.5,4
			C256.786,843.557,256.286,844.057,256.786,845.557z"/>
		<path id="path60788" stroke="#000000" stroke-width="0.489" stroke-linejoin="round" d="M266.786,821.557
			c0,1.381-1.119,2.5-2.5,2.5c-1.381,0-2.5-1.119-2.5-2.5c0-1.381,1.119-2.5,2.5-2.5
			C265.666,819.057,266.786,820.176,266.786,821.557z"/>
		<path id="path60790" fill="none" stroke="#FFFFFF" stroke-width="0.489" stroke-linecap="round" d="M259.286,839.557h10"/>
		<path id="path60792" fill="none" stroke="#FFFFFF" stroke-width="0.489" stroke-linecap="round" d="M256.786,843.557h15"/>
		<path id="path60794" fill="none" stroke="#FFFFFF" stroke-width="0.489" stroke-linecap="round" d="M264.286,829.057v5"/>
		<path id="path60796" fill="none" stroke="#FFFFFF" stroke-width="0.489" stroke-linecap="round" d="M261.786,831.557h5"/>
	</g>
</g>
<g id="g63818" transform="translate(1022.3734,-50.793478)">
	<g id="g63820" transform="matrix(3.4156897,0,0,3.3289941,-1005.3432,-2662.945)">
		<path id="path63822" fill="#FFFFFF" stroke="#FFFFFF" stroke-width="0.4448" stroke-linejoin="round" d="M250.786,848.362
			c2.471-1.234,10.115,0.127,13.5-2.303c3.385,2.431,11.125,0.963,13.352,2.303c2.202,1.325,1.942,0.903,2.556,2.589
			c-0.677,0.972-1.054,1.593-2.408,1.107c-3.385-0.972-10.115,0.458-13.5-1c-3.385,1.459-10.115,0.028-13.5,1
			c-1.354,0.486-1.731-0.211-2.408-1.183C249.731,848.93,248.435,849.535,250.786,848.362z"/>
		<path id="path63824" fill="#FFFFFF" stroke="#FFFFFF" stroke-width="0.4448" stroke-linejoin="round" d="M256.786,845.557
			c2.5,2.5,12.5,2.5,15,0c0.5-1.5,0-2,0-2c0-2.5-2.063-4-2.063-4c5.5-1.5,5.562-11.5-5.438-15.5c-11,4-10.722,14.152-5.222,15.652
			c0,0-2.352,0.969-2.352,3.469C256.712,843.178,256.286,844.057,256.786,845.557z"/>
		<path id="path63826" fill="#FFFFFF" stroke="#FFFFFF" stroke-width="0.3651" stroke-linejoin="round" d="M267.311,822.841
			c0,1.636-1.402,2.962-3.132,2.962c-1.73,0-3.132-1.326-3.132-2.962c0-1.636,1.402-2.962,3.132-2.962
			C265.908,819.879,267.311,821.206,267.311,822.841z"/>
		<path id="path63828" fill="#FF8BFF" stroke="#FF78FF" stroke-width="0.4448" stroke-linecap="round" d="M259.286,839.557h10"/>
		<path id="path63830" fill="#FF8BFF" stroke="#FF78FF" stroke-width="0.4448" stroke-linecap="round" d="M264.286,829.057v5"/>
		<path id="path63832" fill="#FF8BFF" stroke="#FF78FF" stroke-width="0.4448" stroke-linecap="round" d="M261.786,831.557h5"/>
	</g>
	<g id="g63834" transform="matrix(3.067229,0,0,3.067558,-913.48194,-2443.602)">
		<path id="path63836" stroke="#000000" stroke-width="0.489" stroke-linejoin="round" d="M250.786,849.557
			c3.385-0.972,10.115,0.431,13.5-2c3.385,2.431,10.115,1.028,13.5,2c0,0,1.646,0.542,3,2c-0.677,0.972-1.646,0.986-3,0.5
			c-3.385-0.972-10.115,0.459-13.5-1c-3.385,1.458-10.115,0.028-13.5,1c-1.354,0.486-2.323,0.472-3-0.5
			C249.14,849.613,250.786,849.557,250.786,849.557z"/>
		<path id="path63838" stroke="#000000" stroke-width="0.489" stroke-linejoin="round" d="M256.786,845.557c2.5,2.5,12.5,2.5,15,0
			c0.5-1.5,0-2,0-2c0-2.5-2.5-4-2.5-4c5.5-1.5,6-11.5-5-15.5c-11,4-10.5,14-5,15.5c0,0-2.5,1.5-2.5,4
			C256.786,843.557,256.286,844.057,256.786,845.557z"/>
		<path id="path63840" stroke="#000000" stroke-width="0.489" stroke-linejoin="round" d="M266.786,821.557
			c0,1.381-1.119,2.5-2.5,2.5c-1.381,0-2.5-1.119-2.5-2.5c0-1.381,1.119-2.5,2.5-2.5
			C265.666,819.057,266.786,820.176,266.786,821.557z"/>
		<path id="path63842" fill="none" stroke="#FFFFFF" stroke-width="0.489" stroke-linecap="round" d="M259.286,839.557h10"/>
		<path id="path63844" fill="none" stroke="#FFFFFF" stroke-width="0.489" stroke-linecap="round" d="M256.786,843.557h15"/>
		<path id="path63846" fill="none" stroke="#FFFFFF" stroke-width="0.489" stroke-linecap="round" d="M264.286,829.057v5"/>
		<path id="path63848" fill="none" stroke="#FFFFFF" stroke-width="0.489" stroke-linecap="round" d="M261.786,831.557h5"/>
	</g>
</g>
<g id="g67023" transform="translate(-632.34964,-295.24316)">
	<path id="path67025" fill="#FFFFFF" stroke="#FFFFFF" stroke-width="0.2277" stroke-linecap="round" stroke-linejoin="round" d="
		M1211.816,330.865c0,4.851-3.932,8.784-8.783,8.784c-4.851,0-8.782-3.933-8.782-8.784s3.932-8.784,8.782-8.784
		C1207.885,322.082,1211.816,326.014,1211.816,330.865z"/>
	<path id="path67027" fill="#FFFFFF" stroke="#FFFFFF" stroke-width="0.2277" stroke-linecap="round" stroke-linejoin="round" d="
		M1236.641,319.851c0,4.851-3.933,8.784-8.783,8.784s-8.782-3.933-8.782-8.784s3.932-8.784,8.782-8.784
		S1236.641,315,1236.641,319.851z"/>
	<path id="path67029" fill="#FFFFFF" stroke="#FFFFFF" stroke-width="0.2277" stroke-linecap="round" stroke-linejoin="round" d="
		M1262.652,317.073c0,4.851-3.933,8.784-8.783,8.784s-8.783-3.933-8.783-8.784s3.933-8.784,8.783-8.784
		S1262.652,312.222,1262.652,317.073z"/>
	<path id="path67031" fill="#FFFFFF" stroke="#FFFFFF" stroke-width="0.2277" stroke-linecap="round" stroke-linejoin="round" d="
		M1288.916,322.124c0,4.851-3.933,8.784-8.783,8.784s-8.782-3.933-8.782-8.784s3.932-8.784,8.782-8.784
		S1288.916,317.272,1288.916,322.124z"/>
	<path id="path67033" fill="#FFFFFF" stroke="#FFFFFF" stroke-width="1" stroke-linejoin="round" d="M1208.19,371.139
		c29.278-5.167,70.566-5.167,91.233,0l5.627-44.874l-22.092,32.843l-1.01-42.42l-18.188,43.476l-10.081-49.4l-9.828,48.643
		l-18.188-43.683l-0.252,46.163l-22.092-33.601L1208.19,371.139z"/>
	<path id="path67035" fill="#FFFFFF" stroke="#FFFFFF" stroke-width="1" stroke-linejoin="round" d="M1208.19,371.139
		c0,6.89,4.156,7.647,7.601,14.537c3.445,5.167,4.455,2.687,2.732,11.299c-5.166,3.445-5.166,8.612-5.166,8.612
		c-5.167,5.167,1.722,10.612,1.722,10.612c22.39,3.445,54.814,3.445,77.203,0c0,0,5.167-5.445,0-10.612c0,0,1.723-5.167-3.444-8.612
		c-1.723-8.612,0.298-6.89,3.742-12.057c3.445-6.89,6.592-6.89,6.592-13.779C1269.894,365.971,1237.469,365.971,1208.19,371.139z"/>
	<path id="path67037" fill="#FFFFFF" stroke="#FFFFFF" stroke-width="0.2277" stroke-linecap="round" stroke-linejoin="round" d="
		M1313.412,330.71c0,4.851-3.933,8.784-8.783,8.784s-8.782-3.933-8.782-8.784s3.932-8.784,8.782-8.784
		S1313.412,325.859,1313.412,330.71z"/>
	<g id="g67039" transform="matrix(3.067229,0,0,3.067558,-1332.787,-2735.3764)">
		<path id="path67041" stroke="#000000" stroke-width="0.326" stroke-linecap="round" stroke-linejoin="round" d="M828.851,999.616
			c0,1.104-0.896,2-2,2s-2-0.896-2-2c0-1.105,0.896-2,2-2S828.851,998.511,828.851,999.616z"/>
		<path id="path67043" stroke="#000000" stroke-width="0.326" stroke-linecap="round" stroke-linejoin="round" d="M845.351,995.116
			c0,1.105-0.895,2-2,2c-1.104,0-2-0.895-2-2c0-1.105,0.896-2,2-2C844.455,993.116,845.351,994.011,845.351,995.116z"/>
		<path id="path67045" stroke="#000000" stroke-width="0.326" stroke-linecap="round" stroke-linejoin="round" d="M861.851,999.616
			c0,1.104-0.895,2-2,2c-1.105,0-2-0.896-2-2c0-1.105,0.895-2,2-2C860.956,997.616,861.851,998.511,861.851,999.616z"/>
		<path id="path67047" stroke="#000000" stroke-width="0.326" stroke-linecap="round" stroke-linejoin="round" d="M836.851,996.116
			c0,1.105-0.895,2-2,2c-1.105,0-2-0.895-2-2c0-1.105,0.895-2,2-2C835.956,994.116,836.851,995.011,836.851,996.116z"/>
		<path id="path67049" stroke="#000000" stroke-width="0.326" stroke-linecap="round" stroke-linejoin="round" d="M853.851,996.616
			c0,1.104-0.896,2-2,2s-2-0.896-2-2c0-1.105,0.896-2,2-2S853.851,995.511,853.851,996.616z"/>
		<path id="path67051" stroke="#000000" stroke-width="0.326" stroke-linejoin="round" d="M829.851,1013.616c8.5-1.5,21-1.5,27,0
			l2-12l-7,11v-14l-5.5,13.5l-3-15l-3,15l-5.5-14v14.5l-7-11L829.851,1013.616z"/>
		<path id="path67053" stroke="#000000" stroke-width="0.326" stroke-linejoin="round" d="M829.851,1013.616c0,2,1.5,2,2.5,4
			c1,1.5,1,1,0.5,3.5c-1.5,1-1.5,2.5-1.5,2.5c-1.5,1.5,0.5,2.5,0.5,2.5c6.5,1,16.5,1,23,0c0,0,1.5-1,0-2.5c0,0,0.5-1.5-1-2.5
			c-0.5-2.5-0.5-2,0.5-3.5c1-2,2.5-2,2.5-4C848.351,1012.116,838.351,1012.116,829.851,1013.616z"/>
		<path id="path67055" fill="none" stroke="#FFFFFF" stroke-width="0.326" stroke-linecap="round" stroke-linejoin="round" d="
			M832.351,1017.616c3.5-1,18.5-1,22,0"/>
		<path id="path67057" fill="none" stroke="#FFFFFF" stroke-width="0.326" stroke-linecap="round" stroke-linejoin="round" d="
			M832.851,1021.116c6-1,15-1,21,0"/>
		<path id="path67059" fill="none" stroke="#FFFFFF" stroke-width="0.326" stroke-linecap="round" stroke-linejoin="round" d="
			M831.351,1023.616c5-1,18.5-1,23.5,0"/>
	</g>
</g>
<g id="g70004" transform="translate(-840.1623,-410.29432)">
	<g id="g67079" transform="matrix(3.677456,0,0,3.6776632,-684.87287,-2670.1206)">
		<path id="path67081" fill="#FFFFFF" stroke="#FFFFFF" stroke-width="1.6315" stroke-linecap="round" d="M624.651,847.103v-5.625"
			/>
		<path id="path67083" fill="#FFFFFF" stroke="#FFFFFF" stroke-width="0.4079" d="M624.651,858.641c0,0,4.775-7.569,3.275-10.569
			c0,0-1.275-2.431-3.275-2.431c-2,0-3.275,2.569-3.275,2.569C619.876,851.209,624.651,858.641,624.651,858.641"/>
		<path id="path67085" fill="#FFFFFF" stroke="#FFFFFF" stroke-width="0.4079" stroke-linecap="round" stroke-linejoin="round" d="
			M613.995,868.534c5.5,3.5,15.156,3.431,20.657-0.069l-0.069-6.313c0,0,7.352-3.607,4.352-9.607c-4-6.5-13.5-3.5-16,4l1.717,1.921
			v-3.5c-3.637-6.127-10.734-8.44-14.42-2.833c-3,6,3.626,10,3.626,10L613.995,868.534z"/>
		<path id="path67087" fill="#FFFFFF" stroke="#FFFFFF" stroke-width="1.6315" stroke-linecap="round" d="M622.151,843.478h5"/>
	</g>
	<g id="g67061" transform="matrix(3.067229,0,0,3.067558,-329.09607,-2142.8556)">
		<path id="path67063" fill="none" stroke="#000000" stroke-width="0.489" stroke-linecap="round" d="M632.96,843.089v-5.625"/>
		<path id="path67065" stroke="#000000" stroke-width="0.489" d="M632.96,856.464c0,0,4.5-7.5,3-10.5c0,0-1-2.5-3-2.5
			c-2,0-3,2.5-3,2.5C628.46,848.964,632.96,856.464,632.96,856.464"/>
		<path id="path67067" stroke="#000000" stroke-width="0.489" stroke-linecap="round" stroke-linejoin="round" d="M621.96,868.464
			c5.5,3.5,15.5,3.5,21,0v-7c0,0,9-4.5,6-10.5c-4-6.5-13.5-3.5-16,4v3.5v-3.5c-3.5-7.5-13-10.5-16-4c-3,6,5,10,5,10V868.464z"/>
		<path id="path67069" fill="none" stroke="#000000" stroke-width="0.489" stroke-linecap="round" d="M630.46,839.464h5"/>
		<path id="path67071" fill="none" stroke="#FFFFFF" stroke-width="0.489" stroke-linecap="round" d="M621.96,860.964
			c5.5-2.5,15.5-2.5,21,0.5"/>
		<path id="path67073" fill="none" stroke="#FFFFFF" stroke-width="0.489" stroke-linecap="round" stroke-linejoin="round" d="
			M621.96,868.464c5.5-2.5,15.5-2.5,21,0"/>
		<path id="path67075" fill="none" stroke="#FFFFFF" stroke-width="0.489" stroke-linecap="round" stroke-linejoin="round" d="
			M621.96,864.964c5.5-2,15.5-2,21,0"/>
		<path id="path67077" fill="none" stroke="#FFFFFF" stroke-width="0.489" stroke-linecap="round" stroke-linejoin="round" d="
			M642.46,860.964c0,0,8.5-4,6.026-9.654c-3.879-5.85-13.026-1.847-15.526,4.654l0.011,2.096l-0.011-2.096
			c-2.5-6.5-12.594-10.503-15.503-4.654c-2.498,5.654,4.848,9,4.848,9"/>
	</g>
</g>
<g id="g80246" transform="translate(94.875248,-11.00699)">
	<path id="path80248" fill="#FFFFFF" stroke="#FFFFFF" stroke-width="1" stroke-linejoin="round" d="M478.278,1850.391
		c29.278-5.167,72.082-3.021,92.749,2.146c0,0,10.279-44.535,6.384-50.368c-3.895-5.834-21.965,27.034-21.965,27.034l-3.409-42.42
		l-16.167,39.813c0,0-5.767-35.353-11.217-35.132c-5.451,0.221-10.586,36.016-10.586,36.016s-8.621-33.791-15.662-33.455
		c-7.167,0.336-4.419,35.809-4.419,35.809s-16.775-31.037-20.702-25.897C469.357,1809.076,478.278,1850.391,478.278,1850.391z"/>
	<path id="path80250" fill="#FFFFFF" stroke="#FFFFFF" stroke-width="1" stroke-linejoin="round" d="M477.142,1845.211
		c0,7.295,1.277,11.128,7.329,17.286c1.759,2.693,4.382,3.225,2.24,8.555c-5.669,3.647-5.795,11.139-5.795,11.139
		c-1.755,5.219,2.016,11.11,2.016,11.11c24.564,3.647,56.48,3.661,82.179,0.379c0,0,3.396-4.502,2.146-9.974
		c0,0,0.248-8.375-4.158-12.149c-1.006-6.72,1.084-6.411,3.728-10.114c4.031-6.158,5.337-7.295,5.337-14.59
		C540.04,1841.381,509.264,1839.739,477.142,1845.211z"/>
	<path id="path80252" fill="#FFFFFF" stroke="#FFFFFF" stroke-width="0.1896" stroke-linecap="round" stroke-linejoin="round" d="
		M585.899,1806.807c0,5.827-4.724,10.552-10.551,10.552s-10.55-4.725-10.55-10.552s4.723-10.552,10.55-10.552
		S585.899,1800.979,585.899,1806.807z"/>
	<path id="path80254" fill="#FFFFFF" stroke="#FFFFFF" stroke-width="0.1896" stroke-linecap="round" stroke-linejoin="round" d="
		M484.593,1806.697c0,5.827-4.724,10.552-10.55,10.552c-5.827,0-10.551-4.725-10.551-10.552s4.724-10.552,10.551-10.552
		C479.87,1796.145,484.593,1800.87,484.593,1806.697z"/>
	<path id="path80256" fill="#FFFFFF" stroke="#000000" stroke-width="1.63" stroke-linecap="round" stroke-linejoin="round" d="
		M480.334,1806.868c0,3.388-2.747,6.135-6.135,6.135s-6.135-2.747-6.135-6.135c0-3.389,2.747-6.136,6.135-6.136
		S480.334,1803.479,480.334,1806.868z"/>
	<path id="path80258" fill="#FFFFFF" stroke="#FFFFFF" stroke-width="0.1896" stroke-linecap="round" stroke-linejoin="round" d="
		M535.227,1792.807c0,5.827-4.724,10.551-10.55,10.551c-5.827,0-10.551-4.724-10.551-10.551c0-5.828,4.724-10.552,10.551-10.552
		C530.503,1782.256,535.227,1786.979,535.227,1792.807z"/>
	<path id="path80260" fill="#FFFFFF" stroke="#000000" stroke-width="1.63" stroke-linecap="round" stroke-linejoin="round" d="
		M530.944,1793.063c0,3.389-2.747,6.136-6.135,6.136s-6.135-2.747-6.135-6.136c0-3.388,2.747-6.135,6.135-6.135
		S530.944,1789.676,530.944,1793.063z"/>
	<path id="path80262" fill="#FFFFFF" stroke="#000000" stroke-width="1.63" stroke-linecap="round" stroke-linejoin="round" d="
		M581.553,1806.868c0,3.388-2.747,6.135-6.135,6.135s-6.135-2.747-6.135-6.135c0-3.389,2.747-6.136,6.135-6.136
		S581.553,1803.479,581.553,1806.868z"/>
	<path id="path80264" fill="#FFFFFF" stroke="#FFFFFF" stroke-width="0.1896" stroke-linecap="round" stroke-linejoin="round" d="
		M509.216,1796.091c0,5.827-4.724,10.551-10.551,10.551s-10.551-4.724-10.551-10.551c0-5.828,4.724-10.552,10.551-10.552
		S509.216,1790.263,509.216,1796.091z"/>
	<path id="path80266" fill="#FFFFFF" stroke="#000000" stroke-width="1.63" stroke-linecap="round" stroke-linejoin="round" d="
		M504.872,1796.132c0,3.388-2.747,6.135-6.135,6.135s-6.135-2.747-6.135-6.135c0-3.389,2.747-6.136,6.135-6.136
		S504.872,1792.743,504.872,1796.132z"/>
	<path id="path80268" fill="#FFFFFF" stroke="#FFFFFF" stroke-width="0.1896" stroke-linecap="round" stroke-linejoin="round" d="
		M561.492,1797.605c0,5.828-4.724,10.552-10.551,10.552s-10.551-4.724-10.551-10.552c0-5.827,4.724-10.552,10.551-10.552
		S561.492,1791.778,561.492,1797.605z"/>
	<path id="path80270" fill="#FFFFFF" stroke="#000000" stroke-width="1.63" stroke-linecap="round" stroke-linejoin="round" d="
		M557.015,1797.665c0,3.389-2.746,6.135-6.135,6.135c-3.388,0-6.135-2.746-6.135-6.135s2.747-6.135,6.135-6.135
		C554.269,1791.53,557.015,1794.276,557.015,1797.665z"/>
	<path id="path80272" fill="#FFFFFF" stroke="#000000" stroke-width="5" stroke-linejoin="round" d="M483.402,1849.813
		c26.071-4.602,64.411-4.602,82.814,0l6.135-36.811l-21.471,33.743V1803.8l-16.869,41.412l-9.202-46.013l-9.202,46.013
		l-16.869-42.945v44.479l-21.471-33.743L483.402,1849.813z"/>
	<path id="path80274" fill="#FFFFFF" stroke="#000000" stroke-width="5" stroke-linejoin="round" d="M483.402,1849.813
		c0,6.135,4.601,6.135,7.668,12.271c3.067,4.601,3.067,3.067,1.533,10.736c-4.601,3.067-4.601,7.669-4.601,7.669
		c-4.601,4.602,1.533,7.669,1.533,7.669c19.938,3.067,50.609,3.067,70.547,0c0,0,4.601-3.067,0-7.669c0,0,1.533-4.602-3.067-7.669
		c-1.534-7.669-1.534-6.136,1.533-10.736c3.067-6.136,7.668-6.136,7.668-12.271C540.145,1845.212,509.473,1845.212,483.402,1849.813
		z"/>
	<path id="path80276" fill="none" stroke="#000000" stroke-width="5" stroke-linecap="round" stroke-linejoin="round" d="
		M491.07,1862.084c10.735-3.067,56.743-3.067,67.479,0"/>
	<path id="path80278" fill="none" stroke="#000000" stroke-width="5" stroke-linecap="round" stroke-linejoin="round" d="
		M492.603,1872.82c18.403-3.067,46.009-3.067,64.412,0"/>
	<path id="path80280" fill="none" stroke="#000000" stroke-width="5" stroke-linecap="round" stroke-linejoin="round" d="
		M488.002,1880.489c15.336-3.067,56.743-3.067,72.08,0"/>
</g>
<g id="g82263" transform="translate(3.064101,1.07235)">
	<path id="path80321" fill="none" stroke="#FFFFFF" stroke-width="8" stroke-linecap="round" d="M765.525,1790.062v-16.386"/>
	<path id="path80323" fill="none" stroke="#FFFFFF" stroke-width="8" stroke-linecap="round" d="M757.732,1779.68h15.336"/>
	<path id="path80300" fill="none" stroke="#000000" stroke-width="5" stroke-linecap="round" d="M765.679,1790.951v-17.255"/>
	<path id="path80302" fill="#FFFFFF" stroke="#000000" stroke-width="5" d="M765.679,1831.979c0,0,13.803-23.007,9.202-32.209
		c0,0-3.067-7.669-9.202-7.669c-6.134,0-9.201,7.669-9.201,7.669C751.876,1808.972,765.679,1831.979,765.679,1831.979"/>
	<path id="path80304" fill="#FFFFFF" stroke="#000000" stroke-width="5" stroke-linecap="round" stroke-linejoin="round" d="
		M731.94,1868.791c16.87,10.736,47.542,10.736,64.412,0v-21.474c0,0,27.604-13.804,18.403-32.209
		c-12.27-19.939-41.408-10.736-49.076,12.271v10.736v-10.736c-10.735-23.007-39.874-32.21-49.075-12.271
		c-9.202,18.405,15.336,30.675,15.336,30.675V1868.791z"/>
	<path id="path80306" fill="none" stroke="#000000" stroke-width="5" stroke-linecap="round" d="M758.011,1779.831h15.336"/>
	<path id="path80308" fill="none" stroke="#000000" stroke-width="5" stroke-linecap="round" d="M731.94,1845.783
		c16.87-7.668,47.542-7.668,64.412,1.534"/>
	<path id="path80310" fill="none" stroke="#000000" stroke-width="5" stroke-linecap="round" stroke-linejoin="round" d="
		M731.94,1868.791c16.87-7.67,47.542-7.67,64.412,0"/>
	<path id="path80312" fill="none" stroke="#000000" stroke-width="5" stroke-linecap="round" stroke-linejoin="round" d="
		M731.94,1858.053c16.87-6.135,47.542-6.135,64.412,0"/>
</g>
</svg>
